<?xml version="1.0" encoding="UTF-8" standalone="no"?>
<!-- Created with Inkscape (http://www.inkscape.org/) -->

<svg
   xmlns:dc="http://purl.org/dc/elements/1.1/"
   xmlns:cc="http://creativecommons.org/ns#"
   xmlns:rdf="http://www.w3.org/1999/02/22-rdf-syntax-ns#"
   xmlns:svg="http://www.w3.org/2000/svg"
   xmlns="http://www.w3.org/2000/svg"
   xmlns:sodipodi="http://sodipodi.sourceforge.net/DTD/sodipodi-0.dtd"
   xmlns:inkscape="http://www.inkscape.org/namespaces/inkscape"
   width="113.88006mm"
   height="155.21294mm"
   viewBox="0 0 403.51202 549.9671"
   id="svg6766"
   version="1.1"
   inkscape:version="0.91 r13725"
   sodipodi:docname="agirl.svg">
  <defs
     id="defs6768">
    <filter
       inkscape:collect="always"
       style="color-interpolation-filters:sRGB"
       id="filter5662"
       x="-0.48840001"
       width="1.9768"
       y="-0.48840001"
       height="1.9768">
      <feGaussianBlur
         inkscape:collect="always"
         stdDeviation="3.93125"
         id="feGaussianBlur5664" />
    </filter>
  </defs>
  <sodipodi:namedview
     id="base"
     pagecolor="#ffffff"
     bordercolor="#666666"
     borderopacity="1.0"
     inkscape:pageopacity="0.0"
     inkscape:pageshadow="2"
     inkscape:zoom="0.35"
     inkscape:cx="489.61315"
     inkscape:cy="23.554965"
     inkscape:document-units="px"
     inkscape:current-layer="layer1"
     showgrid="false"
     fit-margin-top="0"
     fit-margin-left="0"
     fit-margin-right="0"
     fit-margin-bottom="0"
     inkscape:window-width="1440"
     inkscape:window-height="807"
     inkscape:window-x="0"
     inkscape:window-y="1"
     inkscape:window-maximized="1" />
  <metadata
     id="metadata6771">
    <rdf:RDF>
      <cc:Work
         rdf:about="">
        <dc:format>image/svg+xml</dc:format>
        <dc:type
           rdf:resource="http://purl.org/dc/dcmitype/StillImage" />
        <dc:title></dc:title>
      </cc:Work>
    </rdf:RDF>
  </metadata>
  <g
     inkscape:label="Layer 1"
     inkscape:groupmode="layer"
     id="layer1"
     transform="translate(790.32744,-5.9500961)">
    <g
       id="g7407">
      <rect
         y="450.97409"
         x="-561.25415"
         height="87.23407"
         width="25.606846"
         id="rect5732"
         style="opacity:1;fill:#ffb380;fill-opacity:1;stroke:none;stroke-width:3;stroke-linecap:round;stroke-linejoin:miter;stroke-miterlimit:4;stroke-dasharray:none;stroke-opacity:1" />
      <path
         style="fill:#ff2a2a;fill-rule:evenodd;stroke:none;stroke-width:1px;stroke-linecap:butt;stroke-linejoin:miter;stroke-opacity:1"
         d="m -510.00647,541.62194 c 0,8.88192 -8.82652,14.29523 -24.12322,14.29523 -15.2966,0 -31.2708,-5.41331 -31.2708,-14.29523 0,-8.88192 12.4004,-16.08214 27.69701,-16.08215 15.29661,10e-6 27.69701,7.20023 27.69701,16.08215 z"
         id="path5750"
         inkscape:connector-curvature="0"
         sodipodi:nodetypes="sssss" />
      <rect
         style="opacity:1;fill:#ffb380;fill-opacity:1;stroke:none;stroke-width:3;stroke-linecap:round;stroke-linejoin:miter;stroke-miterlimit:4;stroke-dasharray:none;stroke-opacity:1"
         id="rect5748"
         width="25.606846"
         height="87.23407"
         x="-613.36682"
         y="450.97409" />
      <path
         sodipodi:nodetypes="cscscccscsccc"
         inkscape:connector-curvature="0"
         id="path5744"
         d="m -777.10859,160.22749 c 0,0 -36.11195,150.10575 13.36427,189.77273 11.95357,9.58363 45.45455,-6.81819 45.45455,-6.81819 0,0 18.72686,12.85417 29.54545,13.63637 21.27798,1.53844 61.36364,-18.18182 61.36364,-18.18182 l 105.68182,13.63636 23.86363,-25 c 0,0 46.26088,24.42533 69.31819,18.18182 3.61946,-0.98009 7.95454,-7.95454 7.95454,-7.95454 0,0 20.85579,14.39679 25,6.81818 24.50204,-44.80741 -14.35999,-200.26572 -4.54545,-198.86364 L -631.92613,80.68203 Z"
         style="fill:#000000;fill-rule:evenodd;stroke:#000000;stroke-width:1px;stroke-linecap:butt;stroke-linejoin:miter;stroke-opacity:1" />
      <path
         sodipodi:nodetypes="sssss"
         inkscape:connector-curvature="0"
         id="path5706"
         d="m -674.92215,364.34565 c 9.0057,4.88221 12.1474,11.74303 7.4774,20.35713 -4.6699,8.6142 -10.2197,13.34854 -19.2254,8.46632 -9.0057,-4.88222 -12.5206,-15.82326 -7.8507,-24.43746 4.67,-8.6142 10.5929,-9.26821 19.5987,-4.38599 z"
         style="fill:#ffb380;fill-opacity:1;fill-rule:evenodd;stroke:none;stroke-width:1px;stroke-linecap:butt;stroke-linejoin:miter;stroke-opacity:1" />
      <path
         style="fill:#ffb380;fill-opacity:1;fill-rule:evenodd;stroke:none;stroke-width:1px;stroke-linecap:butt;stroke-linejoin:miter;stroke-opacity:1"
         d="m -451.16323,372.27536 c -10e-6,10.24399 -4.53424,16.27565 -14.33284,16.27565 -9.7986,0 -16.60558,-2.62257 -16.60558,-12.86656 0,-10.24399 7.94334,-18.54839 17.74194,-18.54839 9.7986,0 13.19648,4.89531 13.19648,15.1393 z"
         id="path5708"
         inkscape:connector-curvature="0"
         sodipodi:nodetypes="sssss" />
      <path
         style="fill:#ff00ff;fill-rule:evenodd;stroke:none;stroke-width:1px;stroke-linecap:butt;stroke-linejoin:miter;stroke-opacity:1"
         d="m -610.9196,358.0197 c 6.44839,1.8424 -29.53666,100.07836 -14.2858,108.57142 28.41242,15.8226 105.72167,9.06107 117.1429,-8.57142 12.5546,-19.38222 -34.89753,-108.99317 -28.5714,-108.57143 z"
         id="path5710"
         inkscape:connector-curvature="0"
         sodipodi:nodetypes="csscc" />
      <circle
         style="fill:#ffb380;fill-rule:evenodd;stroke:none;stroke-width:1px;stroke-linecap:butt;stroke-linejoin:miter;stroke-opacity:1"
         id="circle5712"
         cx="-586.63391"
         cy="196.59114"
         r="184.28572" />
      <path
         style="fill:#000000;fill-rule:evenodd;stroke:#000000;stroke-width:1px;stroke-linecap:butt;stroke-linejoin:miter;stroke-opacity:1"
         d="m -562.3482,129.44827 c 0,0 -94.7939,78.59296 -134.2857,51.42857 -10.9854,-7.55632 0,-40 0,-40 l -76.6234,35.97403 C -795.112,162.94611 -728.2845,1.00774 -585.2054,6.59113 c 126.11731,4.92149 207.56646,142.98469 181.75329,151.42857 l -78.8961,-28.57143 c 0,0 -9.32671,39.85743 -25.71429,42.85714 -22.6779,4.15114 -54.2857,-42.85714 -54.2857,-42.85714 z"
         id="path5714"
         inkscape:connector-curvature="0"
         sodipodi:nodetypes="csccsccsc" />
      <ellipse
         style="fill:#000000;fill-rule:evenodd;stroke:#000000;stroke-width:1px;stroke-linecap:butt;stroke-linejoin:miter;stroke-opacity:1"
         id="ellipse5720"
         cx="-626.63391"
         cy="220.87685"
         rx="12.857142"
         ry="25.714285" />
      <ellipse
         ry="25.714285"
         rx="12.857142"
         cy="218.0197"
         cx="-512.34821"
         id="ellipse5722"
         style="fill:#000000;fill-rule:evenodd;stroke:#000000;stroke-width:1px;stroke-linecap:butt;stroke-linejoin:miter;stroke-opacity:1" />
      <rect
         style="opacity:1;fill:#ff00ff;fill-opacity:1;stroke:none;stroke-width:3;stroke-linecap:round;stroke-linejoin:miter;stroke-miterlimit:4;stroke-dasharray:none;stroke-opacity:1"
         id="rect5724"
         width="68.085106"
         height="25.531916"
         x="-638.62207"
         y="193.81917"
         transform="matrix(0.94811404,-0.31793045,0.31793045,0.94811404,0,0)" />
      <rect
         transform="matrix(0.94811404,0.31793045,0.31793045,-0.94811404,0,0)"
         y="-589.05286"
         x="-515.23615"
         height="25.531916"
         width="68.085106"
         id="rect5726"
         style="opacity:1;fill:#ff00ff;fill-opacity:1;stroke:none;stroke-width:3;stroke-linecap:round;stroke-linejoin:miter;stroke-miterlimit:4;stroke-dasharray:none;stroke-opacity:1" />
      <path
         sodipodi:nodetypes="csscc"
         inkscape:connector-curvature="0"
         style="opacity:1;fill:#ff0000;fill-opacity:1;stroke:none;stroke-width:3;stroke-linecap:round;stroke-linejoin:miter;stroke-miterlimit:4;stroke-dasharray:none;stroke-opacity:1"
         d="m -625.54402,427.45804 c -2.7273,17.26113 -22.73794,70.79184 -9.88835,70.95039 31.19246,0.38489 119.27875,-13.89209 136.46078,-9.70667 9.34425,2.2762 -5.84551,-31.9104 -10.12716,-57.20565 z"
         id="path5728" />
      <path
         sodipodi:nodetypes="sssss"
         inkscape:connector-curvature="0"
         id="path5736"
         d="m -562.11915,541.62194 c 0,8.88192 -8.82652,14.29523 -24.12322,14.29523 -15.2966,0 -31.2708,-5.41331 -31.2708,-14.29523 0,-8.88192 12.4004,-16.08214 27.69701,-16.08215 15.29661,10e-6 27.69701,7.20023 27.69701,16.08215 z"
         style="fill:#ff2a2a;fill-rule:evenodd;stroke:none;stroke-width:1px;stroke-linecap:butt;stroke-linejoin:miter;stroke-opacity:1" />
      <path
         style="fill:none;fill-rule:evenodd;stroke:#000000;stroke-width:3;stroke-linecap:butt;stroke-linejoin:miter;stroke-miterlimit:4;stroke-dasharray:none;stroke-opacity:1"
         id="path5738"
         sodipodi:type="arc"
         sodipodi:cx="-569.99426"
         sodipodi:cy="306.81839"
         sodipodi:rx="31.25"
         sodipodi:ry="23.863636"
         sodipodi:start="0"
         sodipodi:end="3.1415927"
         sodipodi:open="true"
         d="m -538.74426,306.81839 a 31.25,23.863636 0 0 1 -15.625,20.66652 31.25,23.863636 0 0 1 -31.25,-1e-5 31.25,23.863636 0 0 1 -15.625,-20.66651" />
      <circle
         style="fill:#ff8080;fill-rule:evenodd;stroke:none;stroke-width:1px;stroke-linecap:butt;stroke-linejoin:miter;stroke-opacity:1;filter:url(#filter5662)"
         id="circle5740"
         cx="-666.58521"
         cy="293.75021"
         r="9.659091" />
      <circle
         r="9.659091"
         cy="293.75021"
         cx="-484.76703"
         id="circle5742"
         style="fill:#ff8080;fill-rule:evenodd;stroke:none;stroke-width:1px;stroke-linecap:butt;stroke-linejoin:miter;stroke-opacity:1;filter:url(#filter5662)" />
      <path
         sodipodi:nodetypes="csccc"
         inkscape:connector-curvature="0"
         id="path5746"
         d="m -720.5625,147.72749 c 0,0 -11.88688,55.33366 -21.59091,81.81818 -6.0622,16.54512 -22.72727,47.72727 -22.72727,47.72727 -0.44127,-39.77273 -20.32237,-79.54545 3.40909,-119.31818 z"
         style="fill:#000000;fill-rule:evenodd;stroke:#000000;stroke-width:1px;stroke-linecap:butt;stroke-linejoin:miter;stroke-opacity:1" />
    </g>
  </g>
</svg>
