<?xml version="1.0" encoding="utf-8"?>
<!-- Generator: Adobe Illustrator 27.6.1, SVG Export Plug-In . SVG Version: 6.00 Build 0)  -->
<svg version="1.1" id="レイヤー_1" xmlns="http://www.w3.org/2000/svg" xmlns:xlink="http://www.w3.org/1999/xlink" x="0px"
	 y="0px" viewBox="0 0 371.8 76.9" style="enable-background:new 0 0 371.8 76.9;" xml:space="preserve">
<style type="text/css">
	.st0{fill:#330097;}
	.st1{fill:#88008D;}
	.st2{fill:#FFFFFF;}
	.st3{fill:#5C33AC;}
	.st4{fill:#118B3B;}
</style>
<path class="st0" d="M114.1,33.9h-11v-3.4c0-1.6-0.1-2.6-0.4-3c-0.3-0.4-0.7-0.6-1.4-0.6c-0.7,0-1.2,0.3-1.6,0.9
	c-0.4,0.6-0.5,1.5-0.5,2.6c0,1.5,0.2,2.7,0.6,3.4c0.4,0.8,1.5,1.7,3.3,2.8c5.2,3.1,8.5,5.6,9.9,7.6c1.4,2,2,5.2,2,9.6
	c0,3.2-0.4,5.6-1.1,7.1c-0.8,1.5-2.2,2.8-4.4,3.8c-2.2,1-4.7,1.6-7.5,1.6c-3.1,0-5.8-0.6-8.1-1.8c-2.2-1.2-3.7-2.7-4.4-4.6
	c-0.7-1.8-1-4.5-1-7.9v-3h11v5.5c0,1.7,0.2,2.8,0.5,3.3c0.3,0.5,0.8,0.7,1.6,0.7c0.8,0,1.3-0.3,1.7-0.9c0.4-0.6,0.6-1.5,0.6-2.8
	c0-2.7-0.4-4.4-1.1-5.3c-0.7-0.8-2.6-2.2-5.5-4.1c-2.9-1.9-4.9-3.3-5.8-4.2c-0.9-0.9-1.7-2.1-2.4-3.6c-0.6-1.5-0.9-3.5-0.9-5.9
	c0-3.5,0.4-6,1.3-7.6c0.9-1.6,2.3-2.9,4.3-3.8c2-0.9,4.3-1.4,7.1-1.4c3,0,5.6,0.5,7.8,1.5c2.1,1,3.6,2.2,4.3,3.7c0.7,1.5,1,4,1,7.6
	V33.9z"/>
<path class="st0" d="M130.6,56.5c0,1.7-0.1,2.7-0.3,3.1c-0.2,0.4-0.6,0.6-1.3,0.6c-0.7,0-1.1-0.3-1.4-0.8c-0.2-0.5-0.3-1.6-0.3-3.4
	c0-1.5,0.1-2.7,0.4-3.5c0.3-0.8,1.2-1.8,2.9-3V56.5z M127.4,41.5c0-1.9,0.1-3,0.3-3.5c0.2-0.4,0.6-0.7,1.3-0.7c0.6,0,1,0.3,1.3,0.8
	c0.3,0.5,0.4,1.7,0.4,3.4c0,1.4-0.1,2.3-0.4,2.8c-0.2,0.5-2,1.3-5.4,2.6c-3.1,1.2-5.1,2.3-5.9,3.2c-0.8,0.9-1.2,2.6-1.2,5.1V58
	c0,3.4,0.7,5.6,2.2,6.6c1.5,1,3.1,1.5,4.9,1.5c1.4,0,2.5-0.3,3.5-0.9c1-0.6,1.8-1.5,2.4-2.7v3h9.9V48.7c0-5.5-0.2-9.2-0.5-10.9
	c-0.4-1.8-1.4-3.3-3.2-4.5c-1.8-1.2-4.4-1.8-7.8-1.8c-2.9,0-5.2,0.5-7,1.6c-1.8,1.1-3,2.3-3.6,3.7c-0.6,1.4-0.9,3.4-0.9,6V45h9.5
	V41.5z"/>
<path class="st0" d="M155,27.6v5.2h2.8v5.3H155v18c0,2.2,0.1,3.4,0.3,3.7c0.2,0.3,1.2,0.4,2.9,0.4v5.4h-4.1c-2.3,0-4-0.1-5-0.3
	c-1-0.2-1.9-0.6-2.6-1.3c-0.8-0.7-1.2-1.5-1.4-2.4c-0.2-0.9-0.3-3-0.3-6.3v-17h-2.2v-5.3h2.2v-5.2H155z"/>
<path class="st0" d="M170,43.9v-2.5c0-1.9,0.1-3.1,0.2-3.5c0.2-0.4,0.6-0.6,1.3-0.6c0.6,0,0.9,0.3,1.1,0.8c0.2,0.5,0.3,1.6,0.3,3.4
	v2.5H170z M183.1,44.9c0-3.2-0.4-5.8-1.1-7.5c-0.8-1.8-2-3.2-3.9-4.3c-1.9-1.1-4.2-1.6-7.1-1.6c-2.3,0-4.4,0.5-6.2,1.3
	c-1.8,0.9-3.1,2.2-3.9,3.9c-0.8,1.7-1.2,4-1.2,6.9v9.8c0,2.5,0.2,4.4,0.5,5.7c0.4,1.3,1,2.5,1.9,3.6c0.9,1.1,2.2,1.9,3.8,2.6
	c1.6,0.6,3.5,0.9,5.7,0.9c2.2,0,4.1-0.3,5.5-0.9c1.5-0.6,2.7-1.6,3.6-2.8c1-1.3,1.6-2.4,1.8-3.6c0.3-1.1,0.4-2.7,0.4-4.8v-2.5h-9.7
	v4.4c0,1.7-0.1,2.8-0.4,3.4c-0.3,0.6-0.8,0.9-1.5,0.9c-0.6,0-1-0.2-1.2-0.7c-0.2-0.4-0.3-1.4-0.3-2.9v-7.2h13.1V44.9z"/>
<path class="st0" d="M196.6,32l-0.4,4.4c1.5-3.1,3.6-4.8,6.5-5v11.8c-1.9,0-3.2,0.3-4.1,0.8c-0.9,0.5-1.4,1.2-1.6,2.1
	c-0.2,0.9-0.3,3-0.3,6.2v13.2h-10.2V32H196.6z"/>
<path class="st0" d="M217.3,56.5c0,1.7-0.1,2.7-0.3,3.1c-0.2,0.4-0.6,0.6-1.3,0.6c-0.7,0-1.1-0.3-1.4-0.8c-0.2-0.5-0.3-1.6-0.3-3.4
	c0-1.5,0.1-2.7,0.4-3.5c0.3-0.8,1.2-1.8,2.9-3V56.5z M214,41.5c0-1.9,0.1-3,0.3-3.5c0.2-0.4,0.6-0.7,1.3-0.7c0.6,0,1,0.3,1.3,0.8
	c0.3,0.5,0.4,1.7,0.4,3.4c0,1.4-0.1,2.3-0.4,2.8c-0.2,0.5-2,1.3-5.4,2.6c-3.1,1.2-5.1,2.3-5.9,3.2c-0.8,0.9-1.2,2.6-1.2,5.1V58
	c0,3.4,0.7,5.6,2.2,6.6c1.5,1,3.1,1.5,4.9,1.5c1.4,0,2.5-0.3,3.5-0.9c1-0.6,1.8-1.5,2.4-2.7v3h9.9V48.7c0-5.5-0.2-9.2-0.5-10.9
	c-0.4-1.8-1.4-3.3-3.2-4.5c-1.7-1.2-4.4-1.8-7.8-1.8c-2.9,0-5.2,0.5-7,1.6c-1.8,1.1-3,2.3-3.6,3.7c-0.6,1.4-0.9,3.4-0.9,6V45h9.5
	V41.5z"/>
<path class="st0" d="M241.4,24.7V30h-10.5v-5.3H241.4z M241.4,32v33.5h-10.5V32H241.4z"/>
<path class="st0" d="M255.8,27.6v5.2h2.8v5.3h-2.8v18c0,2.2,0.1,3.4,0.3,3.7c0.2,0.3,1.2,0.4,2.9,0.4v5.4h-4.1c-2.3,0-4-0.1-5-0.3
	c-1-0.2-1.9-0.6-2.6-1.3c-0.8-0.7-1.2-1.5-1.4-2.4c-0.2-0.9-0.3-3-0.3-6.3v-17h-2.2v-5.3h2.2v-5.2H255.8z"/>
<path class="st0" d="M273.6,56.7c0,1.4-0.1,2.4-0.3,2.8c-0.2,0.4-0.6,0.7-1.2,0.7c-0.6,0-1-0.2-1.2-0.7c-0.2-0.5-0.3-1.5-0.3-3.1
	V41.3c0-1.7,0.1-2.8,0.3-3.2c0.2-0.4,0.6-0.7,1.2-0.7c0.6,0,1,0.2,1.2,0.7c0.2,0.4,0.3,1.5,0.3,3.2V56.7z M283.4,38.5
	c-0.3-1.2-0.9-2.3-1.8-3.4c-0.9-1.1-2.2-2-3.8-2.7c-1.6-0.7-3.6-1-5.9-1c-2.7,0-5,0.5-6.7,1.6c-1.7,1.1-3,2.5-3.6,4.2
	c-0.7,1.7-1,4.2-1,7.3v8.6c0,2.8,0.2,5,0.6,6.4c0.4,1.4,1,2.6,1.9,3.6c0.9,1,2.1,1.7,3.6,2.2c1.6,0.5,3.5,0.7,5.7,0.7
	c2,0,3.8-0.3,5.4-0.9c1.6-0.6,2.8-1.5,3.8-2.7c1-1.2,1.6-2.5,1.9-3.9c0.3-1.4,0.5-3.6,0.5-6.6v-8.2
	C283.9,41.4,283.7,39.7,283.4,38.5z"/>
<circle class="st1" cx="291.3" cy="60.3" r="4.5"/>
<rect x="357.4" y="19.4" class="st1" width="12.1" height="46.3"/>
<path class="st1" d="M331.4,19.4l-25.6,36.3h-6.2l0,9.9h7.9c2.7,0,5.2-1.3,6.8-3.5l22.8-32.4l1.7,0v20h-14.6v9.8h14.6v6.1h12.1V19.4
	H331.4z"/>
<g>
	<path class="st0" d="M124.9,23.1h-3c-0.3,0-0.6,0.2-0.6,0.5v1c0,0.3,0.3,0.5,0.6,0.5h3c3.1,0,4.8-1.5,4.8-4.1v-1.9h0.5
		c0.3,0,0.6-0.2,0.6-0.5v-1c0-0.3-0.3-0.5-0.6-0.5h-0.5v-1c0-0.3-0.3-0.5-0.6-0.5h-1.1c-0.3,0-0.6,0.2-0.6,0.5v1h-3.8v-1
		c0-0.3-0.3-0.5-0.6-0.5h-1.1c-0.3,0-0.6,0.2-0.6,0.5v1h-0.8c-0.3,0-0.6,0.2-0.6,0.5v1c0,0.3,0.3,0.5,0.6,0.5h0.8v2.1
		c0,0.3,0.3,0.5,0.6,0.5h1.1c0.3,0,0.6-0.2,0.6-0.5v-2.1h3.8v1.9C127.3,22.6,126.6,23.1,124.9,23.1z"/>
	<g>
		<path class="st0" d="M154.3,21.2c0,0.9-0.6,1.9-2.2,1.9h-4.9c-0.3,0-0.6,0.2-0.6,0.5v1c0,0.3,0.3,0.5,0.6,0.5h4.9
			c2.7,0,4.6-1.7,4.6-4v-2.3c0-0.3-0.3-0.5-0.6-0.5h-9.9c-0.3,0-0.6,0.2-0.6,0.5v1c0,0.3,0.3,0.5,0.6,0.5h8.2V21.2z"/>
		<path class="st0" d="M156.7,16.2c0-0.3-0.3-0.5-0.6-0.5h-9.9c-0.3,0-0.6,0.2-0.6,0.5v1c0,0.3,0.3,0.5,0.6,0.5h9.9
			c0.3,0,0.6-0.2,0.6-0.5V16.2z"/>
	</g>
	<path class="st0" d="M169.2,15.9c0-0.2-0.3-0.4-0.6-0.3c0,0-2.7,1.3-4.7,1.6c-2,0.4-4.9,0.2-4.9,0.2c-0.2,0-0.5,0.2-0.5,0.5l0,1
		c0,0.3,0.2,0.4,0.5,0.4c0,0,2.4,0.2,4.4-0.1v5.3c0,0.3,0.3,0.5,0.6,0.5h1.1c0.3,0,0.6-0.2,0.6-0.5v-5.9c1.5-0.4,2.3-0.8,3.1-1.1
		c0.2-0.1,0.4-0.2,0.4-0.5L169.2,15.9z"/>
	<path class="st0" d="M224.9,15.9c0-0.2-0.3-0.4-0.6-0.3c0,0-2.7,1.3-4.7,1.6c-2,0.4-4.9,0.2-4.9,0.2c-0.2,0-0.5,0.2-0.5,0.5l0,1
		c0,0.3,0.2,0.4,0.5,0.4c0,0,2.4,0.2,4.4-0.1v5.3c0,0.3,0.3,0.5,0.6,0.5h1.1c0.3,0,0.6-0.2,0.6-0.5v-5.9c1.5-0.4,2.3-0.8,3.1-1.1
		c0.2-0.1,0.4-0.2,0.4-0.5L224.9,15.9z"/>
	<path class="st0" d="M178.8,19.6l-5.4-0.7c0,0,0,0,0,0v-2.7c0-0.3-0.3-0.5-0.6-0.5h-1.1c-0.3,0-0.6,0.2-0.6,0.5v8.5
		c0,0.3,0.3,0.5,0.6,0.5h1.1c0.3,0,0.6-0.2,0.6-0.5v-3.7l5.1,0.7c0.3,0,0.6-0.2,0.7-0.4l0.2-0.9C179.4,19.9,179.1,19.6,178.8,19.6z"
		/>
	<g>
		<path class="st0" d="M134.3,17.7h7.9c0.3,0,0.6-0.2,0.6-0.5v-1c0-0.3-0.3-0.5-0.6-0.5h-7.9c-0.3,0-0.6,0.2-0.6,0.5v1
			C133.6,17.4,133.9,17.7,134.3,17.7z"/>
		<path class="st0" d="M143.1,18.4h-9.9c-0.3,0-0.6,0.2-0.6,0.5v1c0,0.3,0.3,0.5,0.6,0.5h5.2c-0.1,0.4-0.3,1-0.8,1.4
			c-0.8,0.7-2,1.1-3.7,1.2c-0.1,0-0.4,0.1-0.4,0.4c0,0.2,0,1,0,1.3c0,0.3,0.4,0.4,0.6,0.4c2.4-0.1,4.3-0.7,5.5-1.9
			c0.9-0.9,1.3-2,1.4-2.8h2.3c0.3,0,0.6-0.2,0.6-0.5v-1C143.8,18.6,143.5,18.4,143.1,18.4z"/>
	</g>
	<path class="st0" d="M183.8,24v-0.7c0-0.4,0.3-0.6,0.8-0.6h3.1v-5.2h-2.8c-0.5,0-0.8-0.2-0.8-0.6v-0.7c0-0.4,0.3-0.6,0.8-0.6h8.1
		c0.5,0,0.8,0.2,0.8,0.6v0.7c0,0.4-0.3,0.6-0.8,0.6h-2.7v5.2h3c0.5,0,0.8,0.2,0.8,0.6V24c0,0.4-0.3,0.6-0.8,0.6h-8.7
		C184.1,24.6,183.8,24.4,183.8,24z"/>
	<path class="st0" d="M194.8,20.8v-0.7c0-0.4,0.3-0.6,0.8-0.6h5.6c0.5,0,0.8,0.2,0.8,0.6v0.7c0,0.4-0.3,0.6-0.8,0.6h-5.6
		C195,21.4,194.8,21.2,194.8,20.8z"/>
	<path class="st0" d="M209.1,19.2c0.6-0.4,1.2-1.1,1.5-2.2h-7.2c-0.5,0-0.8-0.2-0.8-0.6v-0.7c0-0.4,0.3-0.6,0.8-0.6h8.9
		c0.5,0,0.8,0.2,0.8,0.6v0.9c0,0.3,0,0.5-0.1,0.7c-0.5,1.5-1.7,2.8-3.4,3.8c-0.5,0.3-0.9,0.1-0.9-0.4V20
		C208.7,19.7,208.8,19.5,209.1,19.2z M202.7,23.8c0-0.4,0.2-0.6,0.6-0.7c1.9-0.8,2.5-2.1,2.5-3.5v-0.6c0-0.4,0.3-0.6,0.8-0.6h0.8
		c0.5,0,0.8,0.2,0.8,0.6v0.6c0,2.6-1.4,4.7-4.5,5.7c-0.5,0.2-0.9-0.1-0.9-0.5V23.8z"/>
</g>
<g>
	<path class="st0" d="M77.6,38.3c0,20.9-17,37.9-37.9,37.9c-20.9,0-37.9-17-37.9-37.9c0-20.9,17-37.9,37.9-37.9
		C60.7,0.4,77.6,17.3,77.6,38.3z"/>
	<path class="st2" d="M39.7,4.7c18.5,0,33.5,15,33.5,33.5c0,18.5-15,33.5-33.5,33.5c-18.5,0-33.5-15-33.5-33.5
		C6.2,19.8,21.2,4.7,39.7,4.7 M39.7,2.6C20,2.6,4,18.5,4,38.3C4,58,20,74,39.7,74c19.7,0,35.7-16,35.7-35.7
		C75.4,18.5,59.5,2.6,39.7,2.6L39.7,2.6z"/>
	<path class="st3" d="M67.7,34.5c-2,0-3.6,1.5-3.8,3.5c-3.3-0.3-9.1-0.7-17.5-0.4c-0.9,0-1.7,0.1-2.3,0.1c0.6-0.2,1.4-0.4,2.2-0.6
		c7.6-2.2,12.8-4.2,15.9-5.5c0.5,0.9,1.6,1.5,2.6,1.3c0.1,0,0.3,0,0.4-0.1c0,0,0.1,0,0.1-0.1c0.8-0.3,1.3-0.9,1.5-1.7
		c0.1-0.5,0.1-1,0-1.5c-0.4-1.4-1.9-2.1-3.3-1.7c-0.5,0.2-0.9,0.5-1.2,0.9c-0.4,0.5-0.6,1.2-0.5,1.9c-3.3,0.7-8.7,2.2-16.1,4.9
		c-0.8,0.3-1.5,0.6-2.2,0.8c0.6-0.4,1.2-0.8,1.9-1.3c7-4.7,11.5-8.4,13.9-10.6c1.3,1.4,3.5,1.7,5.1,0.5c1.7-1.3,2.1-3.7,0.9-5.4
		c-1.3-1.7-3.7-2.1-5.4-0.9c-1.6,1.2-2,3.4-1.1,5.1c-2.8,1.7-7.7,4.8-14.4,10c-0.7,0.6-1.3,1-1.8,1.5c0.4-0.5,0.9-1.1,1.5-1.8
		c4.9-6.2,7.9-10.9,9.7-13.8c0.3,0.2,0.7,0.2,1,0.3c0.8,0,1.7-0.3,2.2-1.1c0.8-1.2,0.6-2.8-0.6-3.6c-0.4-0.3-0.9-0.5-1.4-0.5
		c-0.8,0-1.7,0.3-2.2,1.1c-0.7,1-0.6,2.4,0.2,3.3c-2.2,2.5-5.7,6.9-10.1,13.4c-0.5,0.7-0.9,1.4-1.3,1.9c0.2-0.6,0.5-1.3,0.8-2.2
		c2.9-7.9,4.4-13.5,5.1-16.7c1.9,0.4,3.9-0.7,4.5-2.6c0.7-2-0.5-4.2-2.5-4.9c-2-0.7-4.2,0.5-4.9,2.5c-0.6,1.9,0.3,3.9,2.1,4.7
		c-1.3,3-3.4,8.4-5.7,16.5c-0.2,0.9-0.4,1.6-0.6,2.2c0-0.7,0.1-1.4,0.1-2.3c0.3-7.9,0-13.5-0.3-16.8c1.2-0.2,2.1-1.3,2.1-2.5
		c0-1.4-1.2-2.6-2.6-2.6c-1.4,0-2.6,1.2-2.6,2.6c0,1.3,0.9,2.3,2.1,2.5c-0.3,3.4-0.6,9-0.3,16.8c0,0.9,0.1,1.7,0.1,2.3
		c-0.2-0.6-0.4-1.4-0.6-2.2c-2.3-8.1-4.4-13.5-5.7-16.5c1.8-0.8,2.7-2.8,2.1-4.7c-0.7-2-2.8-3.1-4.9-2.5c-2,0.7-3.1,2.8-2.5,4.9
		c0.6,1.9,2.6,3,4.5,2.6c0.7,3.2,2.2,8.8,5.1,16.7c0.3,0.8,0.6,1.6,0.8,2.2c-0.4-0.6-0.8-1.2-1.3-1.9c-4.4-6.6-7.9-10.9-10.1-13.4
		c0,0,0,0,0,0c0.8-0.9,0.9-2.3,0.2-3.3c-0.5-0.7-1.4-1.1-2.2-1.1c-0.5,0-1,0.2-1.4,0.5c-1.2,0.8-1.4,2.5-0.6,3.6
		c0.5,0.7,1.4,1.1,2.2,1.1c0.3,0,0.7-0.1,1-0.3c1.7,2.9,4.8,7.6,9.7,13.8c0.6,0.7,1,1.3,1.5,1.8c-0.5-0.4-1.1-0.9-1.8-1.5
		c-6.6-5.2-11.5-8.3-14.4-10c1-1.7,0.6-3.9-1.1-5.1c-1.7-1.3-4.2-0.9-5.4,0.9c-1.3,1.7-0.9,4.2,0.9,5.4c1.6,1.2,3.8,0.9,5.1-0.5
		c2.5,2.2,6.9,5.9,13.9,10.6c0.7,0.5,1.4,0.9,1.9,1.3c-0.6-0.2-1.3-0.5-2.2-0.8c-7.4-2.7-12.8-4.2-16.1-4.9c0.2-1.2-0.6-2.4-1.8-2.8
		c-0.3-0.1-0.7-0.1-1-0.1c-1,0.1-1.9,0.8-2.2,1.8c-0.4,1.4,0.3,2.8,1.7,3.3c0.3,0.1,0.7,0.1,1,0.1c0.9-0.1,1.6-0.6,2-1.3
		c3.1,1.3,8.3,3.3,15.9,5.5c0.9,0.2,1.6,0.4,2.2,0.6c-0.7,0-1.4-0.1-2.3-0.1c-8.4-0.3-14.2,0-17.5,0.4c-0.2-1.9-1.8-3.5-3.8-3.5
		c-2.1,0-3.9,1.7-3.9,3.9c0,2.1,1.7,3.9,3.9,3.9c2,0,3.6-1.5,3.8-3.5c3.3,0.3,9.1,0.7,17.5,0.4c0.9,0,1.7-0.1,2.3-0.1
		c-0.6,0.2-1.4,0.4-2.2,0.6c-7.6,2.2-12.8,4.2-15.9,5.5c-0.1-0.2-0.2-0.3-0.3-0.5c-0.7-0.8-1.7-1.1-2.8-0.8
		c-1.2,0.4-1.9,1.5-1.8,2.7c0,0.2,0.1,0.3,0.1,0.5c0.4,1.4,1.9,2.1,3.3,1.7c1.2-0.4,1.9-1.6,1.8-2.8c3.3-0.7,8.7-2.2,16.1-4.9
		c0.8-0.3,1.5-0.6,2.2-0.8c-0.6,0.4-1.2,0.8-1.9,1.3c-7,4.7-11.5,8.4-13.9,10.6c-1.3-1.5-3.5-1.7-5.1-0.6c-1.7,1.3-2.1,3.7-0.9,5.4
		c1.3,1.7,3.7,2.1,5.4,0.9c1.6-1.2,2-3.4,1.1-5c2.8-1.7,7.7-4.8,14.4-10c0.7-0.6,1.3-1,1.8-1.5c-0.4,0.5-0.9,1.1-1.5,1.8
		c-4.9,6.2-7.9,10.9-9.7,13.8c-1.1-0.5-2.5-0.2-3.2,0.8c-0.8,1.2-0.6,2.8,0.6,3.6c1.2,0.8,2.8,0.6,3.6-0.6c0.7-1,0.6-2.4-0.2-3.3
		c2.2-2.5,5.7-6.9,10.1-13.4c0.5-0.7,0.9-1.4,1.3-2c-0.2,0.6-0.5,1.3-0.8,2.2c-2.9,7.9-4.4,13.5-5.1,16.7c-1.9-0.4-3.9,0.7-4.5,2.6
		c-0.7,2,0.5,4.2,2.5,4.9c2,0.7,4.2-0.5,4.9-2.5c0.6-1.9-0.3-3.9-2.1-4.7c1.3-3,3.4-8.4,5.7-16.5c0.2-0.9,0.4-1.6,0.6-2.2
		c0,0.7-0.1,1.4-0.1,2.3c-0.3,7.9,0,13.5,0.3,16.8c-0.1,0-0.3,0.1-0.4,0.1c-1,0.4-1.7,1.3-1.7,2.4c0,0.5,0.2,1,0.4,1.4
		c0.3,0.5,0.8,0.9,1.4,1c0.1,0,0.1,0,0.2,0.1c0,0,0.1,0,0.1,0c0.1,0,0.3,0,0.4,0l0,0c0.1,0,0.3,0,0.4,0c0,0,0.1,0,0.1,0
		c0.1,0,0.1,0,0.2-0.1c0.6-0.2,1.1-0.5,1.4-1c0.3-0.4,0.4-0.9,0.4-1.4c0-1.1-0.7-2.1-1.7-2.4c-0.1,0-0.3-0.1-0.4-0.1
		c0.3-3.4,0.6-9,0.3-16.8c0-0.9-0.1-1.7-0.1-2.3c0.2,0.6,0.4,1.4,0.6,2.2c2.3,8.1,4.4,13.5,5.7,16.5c-1.8,0.8-2.7,2.8-2.1,4.7
		c0.7,2,2.8,3.1,4.9,2.5c2-0.7,3.2-2.9,2.5-4.9c-0.6-1.9-2.6-3-4.5-2.6c-0.7-3.2-2.2-8.8-5.1-16.7c-0.3-0.8-0.6-1.6-0.8-2.2
		c0.4,0.6,0.8,1.2,1.3,2C47.4,50.6,51,55,53.2,57.5c-0.8,0.9-1,2.3-0.2,3.3c0.8,1.2,2.5,1.4,3.6,0.6c1.2-0.8,1.4-2.5,0.6-3.6
		c-0.7-1-2.1-1.3-3.2-0.8c-1.7-2.9-4.8-7.6-9.7-13.8c-0.6-0.7-1-1.3-1.5-1.8c0.5,0.4,1.1,0.9,1.8,1.5c6.6,5.2,11.5,8.3,14.4,10
		c-1,1.7-0.6,3.9,1.1,5c1.7,1.3,4.2,0.9,5.4-0.9c1.3-1.7,0.9-4.2-0.9-5.4c-1.6-1.2-3.8-0.9-5.1,0.6c-2.5-2.2-6.9-5.9-13.9-10.6
		c-0.7-0.5-1.4-0.9-1.9-1.3c0.6,0.2,1.3,0.5,2.2,0.8c7.4,2.7,12.8,4.2,16.1,4.9c-0.2,1.2,0.6,2.4,1.8,2.8c0.2,0.1,0.3,0.1,0.5,0.1
		c1.2,0.1,2.4-0.6,2.7-1.8c0.4-1.4-0.3-2.8-1.7-3.2c0,0-0.1,0-0.1,0c-1.2-0.3-2.4,0.2-3,1.2c-3.1-1.3-8.3-3.3-15.9-5.5
		c-0.9-0.2-1.6-0.4-2.2-0.6c0.7,0,1.4,0.1,2.3,0.1c8.4,0.3,14.2,0,17.5-0.4c0.2,1.9,1.8,3.5,3.8,3.5c2.1,0,3.9-1.7,3.9-3.9
		C71.5,36.2,69.8,34.5,67.7,34.5z"/>
	<g>
		<g>
			<g>
				<g>
					<path class="st4" d="M61,48.4c-0.6-8.8-8-13-13.8-15.3L41,30.6c-4.7-1.8-8.6-4.9-8.8-8.6c-0.3-4,2.8-7.6,8.8-8
						c6.5-0.4,10.8,5.2,12.6,9.2c0.9,0.8,3.1,0.5,3.5-0.4c0,0,0.9-1.6,0.9-3c0-2.1-1.8-3.5-1.8-3.5c-4.8-3.6-10.9-5.6-17.4-5.3
						c-2.7,0.1-5.3,0.6-7.7,1.4c-6.8,2.8-10.5,8-10,14.4c0.5,7.9,8,12.3,14.7,14.8c5.6,2.1,12.7,5.5,13.2,12c0.3,4-2.6,8.3-9.3,8.7
						c-7.7,0.5-14.3-6.5-16.4-11.6c-0.8-0.8-2.9-0.6-3.4,0.4c0,0-0.8,1-0.8,3.1c0.2,1.8,1.7,3.3,1.7,3.3c5.2,5.1,12.4,8.2,20.3,7.8
						c5.6-0.2,10.7-2.1,14.9-5.2C59.5,57.1,61.3,53.1,61,48.4z"/>
				</g>
				<g>
					<path class="st0" d="M40,66.6c-7.4,0-14.7-3-20-8.2c-0.2-0.2-1.9-1.8-2.1-4.1l0-0.1c0-2.2,0.7-3.4,1-3.8
						c0.5-0.8,1.4-1.3,2.4-1.5c1.2-0.2,2.2,0.2,2.9,0.9l0.1,0.2l0.1,0.2c2,4.6,8.2,11.3,15.2,10.9c2.9-0.2,5.1-1.1,6.6-2.7
						c1.1-1.3,1.7-2.9,1.6-4.6c-0.4-5.8-7.2-9-12.4-10.9c-9.8-3.7-15-9-15.5-15.8c-0.5-6.9,3.4-12.6,10.8-15.6
						c2.7-0.9,5.4-1.4,8.1-1.5c6.5-0.3,12.9,1.7,18.1,5.6c0.1,0.1,2.3,1.8,2.3,4.5c0,1.5-0.9,3.1-1.1,3.5c-0.3,0.7-1,1.2-2,1.4
						c-1.1,0.3-2.5,0.2-3.4-0.6l-0.2-0.2l-0.1-0.2c-0.7-1.5-4.4-8.9-11.4-8.5c-2.7,0.2-4.9,1.1-6.2,2.6c-1,1.1-1.5,2.6-1.4,4.1
						c0.2,2.8,3.3,5.7,8.1,7.6l6.2,2.5C57,35.7,61.7,41,62.2,48.3l0,0c0.3,5-1.5,9.4-5.4,12.7l-0.1,0.1c-4.5,3.3-9.9,5.2-15.6,5.5
						C40.8,66.6,40.4,66.6,40,66.6z M20.3,54.1c0.2,1.3,1.3,2.5,1.4,2.5c5.1,5.1,12.2,7.8,19.4,7.5c5.2-0.2,10.1-1.9,14.2-5
						c3.2-2.8,4.8-6.5,4.5-10.7l0,0c-0.4-6.3-4.7-10.9-13.1-14.3l-6.2-2.4c-5.8-2.2-9.3-5.8-9.6-9.7c-0.1-2.2,0.6-4.3,2-5.9
						c1.8-2,4.5-3.2,7.9-3.4c6.5-0.4,11.3,4.6,13.6,9.6c0.4,0.1,1.2,0.1,1.5-0.1l0-0.1c0.2-0.4,0.8-1.6,0.8-2.4
						c0-1.5-1.3-2.5-1.3-2.5c-4.8-3.5-10.6-5.4-16.6-5.1c-2.5,0.1-5,0.6-7.3,1.4c-6.3,2.6-9.6,7.4-9.2,13.2
						c0.4,5.8,5.1,10.5,13.9,13.7c5.8,2.1,13.5,5.8,13.9,13c0.2,2.4-0.6,4.6-2.2,6.4c-1.3,1.5-3.8,3.3-8.2,3.5
						c-8.2,0.5-15-6.7-17.5-12.1c-0.1-0.1-0.4-0.1-0.7-0.1c-0.4,0.1-0.6,0.2-0.7,0.3l-0.1,0.2C20.8,51.8,20.3,52.6,20.3,54.1z
						 M56,22.2L56,22.2L56,22.2z"/>
				</g>
			</g>
		</g>
	</g>
	<g>
		<path class="st2" d="M61,48.4c-0.6-8.8-8-13-13.8-15.3L41,30.6c-4.7-1.8-8.6-4.9-8.8-8.6c-0.3-4,2.8-7.6,8.8-8
			c6.5-0.4,10.8,5.2,12.6,9.2c0.9,0.8,3.1,0.5,3.5-0.4c0,0,0.9-1.6,0.9-3c0-2.1-1.8-3.5-1.8-3.5c-4.8-3.6-10.9-5.6-17.4-5.3
			c-2.7,0.1-5.3,0.6-7.7,1.4c-6.8,2.8-10.5,8-10,14.4c0.5,7.9,8,12.3,14.7,14.8c5.6,2.1,12.7,5.5,13.2,12c0.3,4-2.6,8.3-9.3,8.7
			c-7.7,0.5-14.3-6.5-16.4-11.6c-0.8-0.8-2.9-0.6-3.4,0.4c0,0-0.8,1-0.8,3.1c0.2,1.8,1.7,3.3,1.7,3.3c5.2,5.1,12.4,8.2,20.3,7.8
			c5.6-0.2,10.7-2.1,14.9-5.2C59.5,57.1,61.3,53.1,61,48.4z"/>
	</g>
</g>
</svg>
