<?xml version="1.0" encoding="utf-8"?>
<!-- Generator: Adobe Illustrator 27.6.1, SVG Export Plug-In . SVG Version: 6.00 Build 0)  -->
<svg version="1.1" id="レイヤー_1" xmlns="http://www.w3.org/2000/svg" xmlns:xlink="http://www.w3.org/1999/xlink" x="0px"
	 y="0px" viewBox="0 0 298.4 305" style="enable-background:new 0 0 298.4 305;" xml:space="preserve">
<style type="text/css">
	.st0{fill:#330097;}
	.st1{fill:#88008D;}
	.st2{fill:#FFFFFF;}
	.st3{fill:#5C33AC;}
	.st4{fill:#118B3B;}
</style>
<g>
	<path class="st0" d="M29.1,270.4H17.7v-3.5c0-1.6-0.1-2.7-0.4-3.1c-0.3-0.4-0.8-0.7-1.4-0.7c-0.7,0-1.3,0.3-1.6,0.9
		c-0.4,0.6-0.6,1.5-0.6,2.7c0,1.6,0.2,2.8,0.6,3.6c0.4,0.8,1.6,1.8,3.5,2.9c5.4,3.2,8.9,5.9,10.3,8c1.4,2.1,2.1,5.4,2.1,10.1
		c0,3.4-0.4,5.8-1.2,7.4c-0.8,1.6-2.3,2.9-4.6,4c-2.2,1.1-4.9,1.6-7.9,1.6c-3.3,0-6.1-0.6-8.4-1.9c-2.3-1.2-3.8-2.8-4.6-4.8
		c-0.7-1.9-1.1-4.7-1.1-8.2v-3.1h11.4v5.8c0,1.8,0.2,2.9,0.5,3.4c0.3,0.5,0.9,0.8,1.7,0.8c0.8,0,1.4-0.3,1.8-1
		c0.4-0.6,0.6-1.6,0.6-2.9c0-2.8-0.4-4.6-1.1-5.5c-0.8-0.9-2.7-2.3-5.7-4.3c-3-2-5.1-3.5-6-4.4c-1-0.9-1.8-2.2-2.5-3.8
		c-0.6-1.6-1-3.7-1-6.2c0-3.6,0.5-6.3,1.4-7.9c0.9-1.7,2.4-3,4.5-3.9c2.1-0.9,4.5-1.4,7.4-1.4c3.2,0,5.9,0.5,8.1,1.5
		c2.2,1,3.7,2.3,4.4,3.9c0.7,1.6,1.1,4.2,1.1,8V270.4z"/>
	<path class="st0" d="M46.2,293.9c0,1.8-0.1,2.8-0.3,3.3c-0.2,0.4-0.6,0.6-1.3,0.6c-0.7,0-1.2-0.3-1.4-0.8c-0.2-0.5-0.4-1.7-0.4-3.5
		c0-1.6,0.1-2.8,0.4-3.6c0.3-0.8,1.3-1.9,3-3.1V293.9z M42.8,278.3c0-1.9,0.1-3.1,0.3-3.6c0.2-0.5,0.6-0.7,1.4-0.7
		c0.6,0,1.1,0.3,1.4,0.8c0.3,0.5,0.4,1.7,0.4,3.6c0,1.5-0.1,2.4-0.4,2.9c-0.2,0.5-2.1,1.4-5.6,2.8c-3.3,1.3-5.3,2.4-6.1,3.3
		c-0.8,0.9-1.2,2.7-1.2,5.3v2.9c0,3.5,0.8,5.8,2.3,6.8c1.6,1,3.3,1.6,5.1,1.6c1.4,0,2.6-0.3,3.7-0.9c1-0.6,1.9-1.6,2.5-2.8v3.1h10.3
		v-17.5c0-5.8-0.2-9.6-0.6-11.4c-0.4-1.8-1.5-3.4-3.3-4.7c-1.8-1.3-4.5-1.9-8.1-1.9c-3,0-5.4,0.6-7.3,1.7c-1.9,1.1-3.1,2.4-3.8,3.9
		c-0.6,1.5-0.9,3.5-0.9,6.2v2.3h9.9V278.3z"/>
	<path class="st0" d="M71.7,263.8v5.5h2.9v5.5h-2.9v18.7c0,2.3,0.1,3.6,0.4,3.8c0.2,0.3,1.2,0.4,3,0.4v5.6h-4.3
		c-2.4,0-4.2-0.1-5.2-0.3c-1-0.2-1.9-0.7-2.7-1.4c-0.8-0.7-1.3-1.6-1.5-2.5c-0.2-0.9-0.3-3.1-0.3-6.6v-17.7h-2.3v-5.5H61v-5.5H71.7z
		"/>
	<path class="st0" d="M87.3,280.8v-2.6c0-2,0.1-3.2,0.3-3.6c0.2-0.4,0.6-0.7,1.3-0.7c0.6,0,1,0.3,1.1,0.8c0.2,0.5,0.3,1.7,0.3,3.5
		v2.6H87.3z M100.9,281.9c0-3.4-0.4-6-1.2-7.9c-0.8-1.9-2.1-3.4-4.1-4.5c-1.9-1.1-4.4-1.7-7.4-1.7c-2.4,0-4.6,0.5-6.4,1.4
		c-1.9,0.9-3.2,2.3-4,4c-0.8,1.8-1.2,4.2-1.2,7.2v10.2c0,2.6,0.2,4.6,0.6,5.9c0.4,1.4,1,2.6,2,3.7c1,1.1,2.3,2,4,2.7
		c1.7,0.6,3.7,1,5.9,1c2.3,0,4.2-0.3,5.8-1c1.5-0.7,2.8-1.6,3.8-3c1-1.3,1.6-2.5,1.9-3.7c0.3-1.2,0.4-2.8,0.4-5v-2.6H90.8v4.6
		c0,1.7-0.1,2.9-0.4,3.5c-0.3,0.6-0.8,0.9-1.6,0.9c-0.6,0-1.1-0.2-1.3-0.7c-0.2-0.5-0.3-1.5-0.3-3.1v-7.6h13.7V281.9z"/>
	<path class="st0" d="M115,268.4l-0.4,4.6c1.5-3.3,3.8-5,6.7-5.2v12.2c-1.9,0-3.4,0.3-4.3,0.8c-0.9,0.5-1.5,1.3-1.7,2.2
		c-0.2,0.9-0.3,3.1-0.3,6.5v13.8h-10.6v-34.9H115z"/>
	<path class="st0" d="M136.5,293.9c0,1.8-0.1,2.8-0.3,3.3c-0.2,0.4-0.6,0.6-1.3,0.6c-0.7,0-1.2-0.3-1.4-0.8
		c-0.2-0.5-0.4-1.7-0.4-3.5c0-1.6,0.1-2.8,0.4-3.6c0.3-0.8,1.3-1.9,3-3.1V293.9z M133.1,278.3c0-1.9,0.1-3.1,0.3-3.6
		c0.2-0.5,0.6-0.7,1.4-0.7c0.6,0,1.1,0.3,1.4,0.8c0.3,0.5,0.4,1.7,0.4,3.6c0,1.5-0.1,2.4-0.4,2.9c-0.2,0.5-2.1,1.4-5.6,2.8
		c-3.3,1.3-5.3,2.4-6.1,3.3c-0.8,0.9-1.2,2.7-1.2,5.3v2.9c0,3.5,0.8,5.8,2.3,6.8c1.6,1,3.3,1.6,5.1,1.6c1.4,0,2.6-0.3,3.7-0.9
		c1-0.6,1.9-1.6,2.5-2.8v3.1h10.3v-17.5c0-5.8-0.2-9.6-0.6-11.4c-0.4-1.8-1.5-3.4-3.3-4.7c-1.8-1.3-4.5-1.9-8.1-1.9
		c-3,0-5.4,0.6-7.3,1.7c-1.9,1.1-3.1,2.4-3.8,3.9c-0.6,1.5-0.9,3.5-0.9,6.2v2.3h9.9V278.3z"/>
	<path class="st0" d="M161.6,260.8v5.5h-10.9v-5.5H161.6z M161.6,268.4v34.9h-10.9v-34.9H161.6z"/>
	<path class="st0" d="M176.7,263.8v5.5h2.9v5.5h-2.9v18.7c0,2.3,0.1,3.6,0.4,3.8c0.2,0.3,1.2,0.4,3,0.4v5.6h-4.3
		c-2.4,0-4.2-0.1-5.2-0.3c-1-0.2-2-0.7-2.7-1.4c-0.8-0.7-1.3-1.6-1.5-2.5c-0.2-0.9-0.3-3.1-0.3-6.6v-17.7h-2.3v-5.5h2.3v-5.5H176.7z
		"/>
	<path class="st0" d="M195.3,294.1c0,1.5-0.1,2.5-0.3,2.9c-0.2,0.5-0.6,0.7-1.2,0.7c-0.6,0-1-0.2-1.2-0.8c-0.2-0.5-0.3-1.6-0.3-3.2
		V278c0-1.8,0.1-2.9,0.3-3.4c0.2-0.5,0.6-0.7,1.2-0.7c0.6,0,1,0.2,1.2,0.7c0.2,0.5,0.3,1.6,0.3,3.4V294.1z M205.4,275.2
		c-0.3-1.2-1-2.4-1.9-3.5c-0.9-1.1-2.2-2.1-3.9-2.8c-1.7-0.7-3.8-1.1-6.1-1.1c-2.8,0-5.2,0.6-7,1.7c-1.8,1.1-3.1,2.6-3.8,4.4
		c-0.7,1.8-1.1,4.4-1.1,7.6v8.9c0,3,0.2,5.2,0.6,6.7c0.4,1.5,1,2.7,1.9,3.8c0.9,1,2.2,1.8,3.8,2.3c1.6,0.5,3.6,0.8,6,0.8
		c2.1,0,4-0.3,5.6-0.9c1.6-0.6,2.9-1.5,4-2.8c1-1.3,1.7-2.6,2-4.1c0.3-1.5,0.5-3.8,0.5-6.9v-8.5
		C205.9,278.2,205.8,276.4,205.4,275.2z"/>
	<path class="st1" d="M218.3,297.9c0,2.6-2.1,4.6-4.6,4.6c-2.6,0-4.6-2.1-4.6-4.6c0-2.6,2.1-4.6,4.6-4.6
		C216.3,293.3,218.3,295.3,218.3,297.9z"/>
	<rect x="282.6" y="255.3" class="st1" width="12.6" height="48.2"/>
	<path class="st1" d="M255.5,255.3l-26.7,37.9h-6.4l0,10.3h8.2c2.8,0,5.4-1.4,7.1-3.7l23.8-33.8l1.8,0v20.8H248v10.2h15.2v6.4h12.6
		v-48.2H255.5z"/>
</g>
<g>
	<path class="st0" d="M78.5,253.6h-4.1c-0.5,0-0.9,0.3-0.9,0.7v1.4c0,0.4,0.4,0.7,0.9,0.7h4.1c4.3,0,6.7-2.1,6.7-5.7v-2.7h0.7
		c0.5,0,0.9-0.3,0.9-0.7V246c0-0.4-0.4-0.7-0.9-0.7h-0.7v-1.4c0-0.4-0.4-0.7-0.9-0.7h-1.6c-0.5,0-0.9,0.3-0.9,0.7v1.4h-5.3v-1.4
		c0-0.4-0.4-0.7-0.9-0.7h-1.6c-0.5,0-0.9,0.3-0.9,0.7v1.4h-1.1c-0.5,0-0.9,0.3-0.9,0.7v1.4c0,0.4,0.4,0.7,0.9,0.7h1.1v2.9
		c0,0.4,0.4,0.7,0.9,0.7h1.6c0.5,0,0.9-0.3,0.9-0.7v-2.9h5.3v2.7C81.9,252.8,80.9,253.6,78.5,253.6z"/>
	<g>
		<path class="st0" d="M119.5,250.9c0,1.3-0.8,2.7-3.1,2.7h-6.8c-0.5,0-0.9,0.3-0.9,0.7v1.4c0,0.4,0.4,0.7,0.9,0.7h6.8
			c3.7,0,6.4-2.3,6.4-5.5v-3.2c0-0.4-0.4-0.7-0.9-0.7h-13.8c-0.5,0-0.9,0.3-0.9,0.7v1.4c0,0.4,0.4,0.7,0.9,0.7h11.4V250.9z"/>
		<path class="st0" d="M122.9,243.9c0-0.4-0.4-0.7-0.9-0.7h-13.8c-0.5,0-0.9,0.3-0.9,0.7v1.4c0,0.4,0.4,0.7,0.9,0.7H122
			c0.5,0,0.9-0.3,0.9-0.7V243.9z"/>
	</g>
	<path class="st0" d="M140.3,243.5c0-0.3-0.5-0.5-0.8-0.4c0,0-3.8,1.8-6.6,2.3c-2.7,0.5-6.8,0.3-6.8,0.3c-0.3,0-0.7,0.2-0.7,0.7
		l0,1.4c0,0.4,0.3,0.6,0.8,0.6c0,0,3.3,0.2,6.1-0.2v7.4c0,0.4,0.4,0.7,0.9,0.7h1.5c0.5,0,0.9-0.3,0.9-0.7v-8.2
		c2.1-0.6,3.2-1,4.3-1.5c0.2-0.1,0.6-0.3,0.6-0.6L140.3,243.5z"/>
	<path class="st0" d="M218.2,243.5c0-0.3-0.5-0.5-0.8-0.4c0,0-3.8,1.8-6.6,2.3c-2.7,0.5-6.8,0.3-6.8,0.3c-0.3,0-0.7,0.2-0.7,0.7
		l0,1.4c0,0.4,0.3,0.6,0.8,0.6c0,0,3.3,0.2,6.1-0.2v7.4c0,0.4,0.4,0.7,0.9,0.7h1.5c0.5,0,0.9-0.3,0.9-0.7v-8.2
		c2.1-0.6,3.2-1,4.3-1.5c0.2-0.1,0.6-0.3,0.6-0.6L218.2,243.5z"/>
	<path class="st0" d="M153.8,248.6l-7.5-1c0,0,0,0-0.1,0v-3.8c0-0.4-0.4-0.7-0.9-0.7h-1.6c-0.5,0-0.9,0.3-0.9,0.7v11.8
		c0,0.4,0.4,0.7,0.9,0.7h1.6c0.5,0,0.9-0.3,0.9-0.7v-5.2l7.1,0.9c0.5,0.1,0.9-0.2,1-0.6l0.2-1.3
		C154.6,249.1,154.3,248.7,153.8,248.6z"/>
	<g>
		<path class="st0" d="M91.6,245.9h11c0.5,0,0.9-0.3,0.9-0.7v-1.4c0-0.4-0.4-0.7-0.9-0.7h-11c-0.5,0-0.9,0.3-0.9,0.7v1.4
			C90.7,245.6,91.1,245.9,91.6,245.9z"/>
		<path class="st0" d="M104,247H90.1c-0.5,0-0.9,0.3-0.9,0.7v1.4c0,0.4,0.4,0.7,0.9,0.7h7.2c-0.1,0.6-0.4,1.3-1.1,2
			c-1.1,1-2.8,1.6-5.2,1.7c-0.2,0-0.6,0.2-0.6,0.5c0,0.3,0,1.4,0,1.9c0,0.4,0.6,0.6,0.8,0.6c3.4-0.1,5.9-1,7.6-2.7
			c1.3-1.3,1.8-2.8,1.9-3.9h3.2c0.5,0,0.9-0.3,0.9-0.7v-1.4C104.8,247.3,104.5,247,104,247z"/>
	</g>
	<path class="st0" d="M160.8,254.8v-1c0-0.6,0.4-0.9,1.1-0.9h4.3v-7.3h-3.9c-0.7,0-1.1-0.3-1.1-0.9v-1c0-0.6,0.4-0.9,1.1-0.9h11.2
		c0.7,0,1.1,0.3,1.1,0.9v1c0,0.6-0.4,0.9-1.1,0.9h-3.8v7.3h4.2c0.7,0,1.1,0.3,1.1,0.9v1c0,0.6-0.4,0.9-1.1,0.9h-12.1
		C161.1,255.7,160.8,255.4,160.8,254.8z"/>
	<path class="st0" d="M176.1,250.3v-1c0-0.6,0.4-0.9,1.1-0.9h7.8c0.7,0,1.1,0.3,1.1,0.9v1c0,0.6-0.4,0.9-1.1,0.9h-7.8
		C176.5,251.2,176.1,250.9,176.1,250.3z"/>
	<path class="st0" d="M196.2,248.1c0.9-0.6,1.7-1.5,2.1-3h-10c-0.7,0-1.1-0.3-1.1-0.9v-0.9c0-0.6,0.4-0.9,1.1-0.9h12.5
		c0.7,0,1.1,0.3,1.1,0.9v1.3c0,0.4,0,0.7-0.2,1c-0.7,2-2.3,3.9-4.8,5.3c-0.7,0.4-1.3,0.1-1.3-0.6v-1.1
		C195.5,248.8,195.7,248.5,196.2,248.1z M187.1,254.5c0-0.5,0.3-0.8,0.8-1c2.7-1.1,3.5-3,3.5-4.9v-0.9c0-0.6,0.4-0.9,1.1-0.9h1.1
		c0.7,0,1.1,0.3,1.1,0.9v0.8c0,3.7-2,6.5-6.3,7.9c-0.8,0.2-1.3-0.1-1.3-0.7V254.5z"/>
</g>
<g>
	<path class="st0" d="M267.6,117c0,64.5-52.3,116.8-116.8,116.8C86.3,233.8,34,181.5,34,117C34,52.5,86.3,0.2,150.8,0.2
		C215.3,0.2,267.6,52.5,267.6,117z"/>
	<path class="st2" d="M150.8,13.6c57,0,103.4,46.4,103.4,103.4c0,57-46.4,103.4-103.4,103.4c-57,0-103.4-46.4-103.4-103.4
		C47.4,60,93.8,13.6,150.8,13.6 M150.8,6.9C90,6.9,40.7,56.2,40.7,117c0,60.8,49.3,110.1,110.1,110.1c60.8,0,110.1-49.3,110.1-110.1
		C260.9,56.2,211.6,6.9,150.8,6.9L150.8,6.9z"/>
	<path class="st3" d="M236.9,105.4c-6.2,0-11.2,4.7-11.8,10.7c-10.1-1-27.9-2.1-53.9-1.1c-2.8,0.1-5.1,0.2-7.1,0.4
		c2-0.5,4.2-1.1,6.9-1.9c23.4-6.6,39.5-12.8,49.1-16.9c1.6,2.9,4.8,4.5,8.1,4.1c0.5-0.1,0.9-0.2,1.4-0.3c0.2-0.1,0.3-0.1,0.4-0.2
		c2.4-0.9,4.1-2.9,4.8-5.2c0.4-1.5,0.4-3.1-0.1-4.6c-1.4-4.2-5.9-6.5-10-5.1c-1.6,0.5-2.9,1.5-3.8,2.7c-1.3,1.6-1.9,3.7-1.6,5.9
		c-10.2,2.3-26.8,6.8-49.6,15.2c-2.6,1-4.8,1.8-6.7,2.6c1.7-1.1,3.7-2.4,6-3.9c21.6-14.5,35.4-25.8,42.9-32.6
		c4,4.5,10.8,5.3,15.8,1.7c5.3-3.9,6.5-11.3,2.6-16.7c-3.9-5.3-11.3-6.5-16.7-2.6c-5,3.6-6.3,10.4-3.3,15.6
		c-8.7,5.1-23.8,14.7-44.3,30.8c-2.2,1.7-4,3.2-5.6,4.5c1.3-1.6,2.8-3.4,4.5-5.6c15-19.1,24.4-33.6,29.8-42.5c1,0.5,2.1,0.7,3.1,0.8
		c2.6,0.1,5.1-1.1,6.7-3.3c2.6-3.5,1.8-8.5-1.8-11.1c-1.3-1-2.9-1.5-4.4-1.5c-2.6-0.1-5.1,1.1-6.7,3.3c-2.3,3.2-1.9,7.4,0.7,10.2
		c-6.9,7.8-17.7,21.2-31.3,41.4c-1.5,2.3-2.8,4.3-3.9,6c0.8-1.9,1.6-4.1,2.5-6.7c8.9-24.4,13.4-41.7,15.6-51.6
		c5.9,1.2,11.9-2.1,13.8-7.9c2-6.3-1.4-13-7.7-15c-6.3-2-13,1.4-15,7.7c-1.9,5.9,1,12.1,6.5,14.5c-4.1,9.3-10.6,25.9-17.7,50.9
		c-0.8,2.7-1.4,4.9-1.9,6.9c0.1-2.1,0.3-4.4,0.4-7.2c0.9-24.3,0-41.5-0.9-51.9c3.7-0.7,6.5-3.9,6.5-7.8c0-4.4-3.6-8-8-8
		c-4.4,0-8,3.6-8,8c0,3.9,2.8,7.1,6.5,7.8c-0.9,10.4-1.8,27.6-0.9,51.9c0.1,2.8,0.2,5.1,0.4,7.2c-0.5-2-1.1-4.3-1.9-6.9
		c-7.1-25-13.6-41.6-17.7-50.9c5.5-2.5,8.4-8.7,6.5-14.5c-2-6.3-8.8-9.7-15-7.7c-6.3,2-9.7,8.8-7.7,15c1.9,5.9,7.9,9.2,13.8,7.9
		c2.2,9.9,6.7,27.2,15.6,51.6c1,2.6,1.8,4.8,2.6,6.7c-1.1-1.7-2.4-3.7-3.9-6c-13.5-20.2-24.4-33.6-31.3-41.4c0,0,0.1-0.1,0.1-0.1
		c2.5-2.7,2.8-6.9,0.6-10.1c-1.6-2.2-4.2-3.4-6.7-3.3c-1.5,0.1-3.1,0.5-4.4,1.5c-3.6,2.6-4.3,7.6-1.8,11.1c1.6,2.2,4.2,3.4,6.7,3.3
		c1.1,0,2.1-0.3,3.1-0.8c5.3,8.9,14.7,23.4,29.8,42.5c1.7,2.2,3.2,4,4.5,5.6c-1.6-1.3-3.4-2.8-5.6-4.5c-20.4-16-35.5-25.6-44.2-30.8
		c3-5.2,1.7-12-3.3-15.6c-5.3-3.9-12.8-2.7-16.7,2.6c-3.9,5.3-2.7,12.8,2.6,16.7c5,3.6,11.8,2.8,15.8-1.7
		c7.6,6.7,21.4,18.1,42.9,32.6c2.3,1.5,4.3,2.8,6,3.9c-1.9-0.8-4.1-1.6-6.7-2.6c-22.8-8.4-39.5-12.8-49.7-15.2
		c0.5-3.7-1.7-7.4-5.4-8.6c-1-0.3-2.1-0.4-3.1-0.4c-3.1,0.3-5.9,2.3-6.9,5.5c-1.4,4.2,0.9,8.7,5.1,10c1,0.3,2.1,0.4,3.1,0.4
		c2.6-0.2,5-1.8,6.3-4.1c9.6,4.1,25.7,10.3,49.1,16.9c2.7,0.8,4.9,1.4,6.9,1.9c-2-0.1-4.4-0.3-7.1-0.4c-25.9-1-43.8,0.1-53.9,1.1
		c-0.6-6-5.6-10.7-11.8-10.7c-6.6,0-11.9,5.3-11.9,11.9c0,6.6,5.3,11.9,11.9,11.9c6.2,0,11.2-4.7,11.8-10.7
		c10.1,1,27.9,2.1,53.9,1.1c2.8-0.1,5.1-0.2,7.1-0.4c-2,0.5-4.3,1.1-6.9,1.9c-23.4,6.6-39.5,12.8-49.1,16.9c-0.3-0.5-0.6-1-1-1.4
		c-2-2.3-5.3-3.4-8.5-2.3c-3.7,1.2-5.9,4.8-5.5,8.5c0.1,0.5,0.2,1,0.3,1.6c1.4,4.2,5.8,6.5,10,5.1c3.7-1.2,5.9-4.9,5.4-8.6
		c10.2-2.3,26.8-6.8,49.7-15.1c2.6-0.9,4.8-1.8,6.7-2.6c-1.7,1.1-3.7,2.4-6,3.9c-21.5,14.5-35.4,25.8-42.9,32.6
		c-4-4.5-10.8-5.3-15.8-1.7c-5.3,3.9-6.5,11.3-2.6,16.7c3.9,5.3,11.3,6.5,16.7,2.6c5-3.6,6.3-10.3,3.3-15.6
		c8.7-5.1,23.8-14.7,44.2-30.8c2.2-1.7,4-3.2,5.6-4.5c-1.3,1.6-2.8,3.4-4.5,5.6c-15,19.1-24.4,33.6-29.8,42.5
		c-3.4-1.6-7.6-0.7-9.9,2.5c-2.6,3.6-1.8,8.5,1.8,11.1c3.6,2.6,8.5,1.8,11.1-1.8c2.3-3.1,1.9-7.4-0.7-10.1
		c6.9-7.8,17.7-21.2,31.3-41.4c1.5-2.3,2.8-4.3,3.9-6c-0.8,1.9-1.6,4.1-2.6,6.7c-8.9,24.4-13.4,41.7-15.6,51.6
		c-5.9-1.3-11.9,2.1-13.8,7.9c-2,6.3,1.4,13,7.7,15c6.3,2,13-1.4,15-7.7c1.9-5.9-1-12.1-6.5-14.5c4.1-9.3,10.6-25.9,17.7-50.9
		c0.8-2.7,1.4-4.9,1.9-6.9c-0.1,2-0.3,4.4-0.4,7.2c-0.9,24.3,0,41.5,0.9,51.9c-0.4,0.1-0.9,0.2-1.3,0.3c-3,1.1-5.2,4-5.2,7.5
		c0,1.6,0.5,3.2,1.4,4.4c1,1.6,2.6,2.7,4.4,3.2c0.2,0.1,0.4,0.1,0.6,0.2c0.1,0,0.2,0,0.3,0c0.4,0.1,0.8,0.1,1.3,0.1l0,0
		c0.4,0,0.9-0.1,1.3-0.1c0.1,0,0.2,0,0.3,0c0.2,0,0.4-0.1,0.6-0.2c1.8-0.5,3.4-1.6,4.4-3.2c0.9-1.3,1.4-2.8,1.4-4.4
		c0-3.4-2.2-6.3-5.2-7.5c-0.4-0.2-0.8-0.3-1.3-0.3c0.9-10.4,1.8-27.6,0.9-51.9c-0.1-2.8-0.2-5.1-0.4-7.2c0.5,2,1.1,4.2,1.9,6.9
		c7.1,25,13.7,41.6,17.7,50.9c-5.5,2.4-8.4,8.7-6.5,14.5c2,6.3,8.8,9.7,15,7.7c6.3-2,9.7-8.8,7.7-15c-1.9-5.9-7.9-9.2-13.8-7.9
		c-2.2-9.9-6.7-27.2-15.6-51.6c-0.9-2.6-1.8-4.8-2.5-6.7c1.1,1.7,2.4,3.7,3.9,6c13.5,20.2,24.4,33.6,31.3,41.4
		c-2.6,2.7-3,7-0.7,10.1c2.6,3.6,7.6,4.4,11.1,1.8c3.6-2.6,4.3-7.6,1.8-11.1c-2.3-3.2-6.5-4.1-9.9-2.5c-5.3-8.9-14.7-23.4-29.8-42.5
		c-1.7-2.2-3.2-4-4.5-5.6c1.6,1.3,3.4,2.8,5.6,4.5c20.4,16,35.5,25.6,44.2,30.8c-3,5.2-1.7,11.9,3.3,15.6c5.3,3.9,12.8,2.7,16.7-2.6
		c3.9-5.3,2.7-12.8-2.6-16.7c-5-3.6-11.8-2.8-15.8,1.7c-7.6-6.7-21.4-18.1-42.9-32.6c-2.3-1.5-4.3-2.8-6-3.9
		c1.9,0.8,4.1,1.6,6.7,2.6c22.8,8.4,39.5,12.9,49.6,15.1c-0.5,3.7,1.7,7.4,5.4,8.6c0.5,0.2,1,0.3,1.6,0.3c3.7,0.4,7.3-1.8,8.5-5.5
		c1.4-4.2-0.9-8.7-5.1-10c-0.1-0.1-0.2-0.1-0.3-0.1c-3.6-1-7.4,0.6-9.1,3.8c-9.6-4.1-25.7-10.3-49.1-16.9c-2.7-0.8-4.9-1.4-6.9-1.9
		c2.1,0.1,4.4,0.3,7.1,0.4c25.9,1,43.8-0.1,53.9-1.1c0.6,6,5.6,10.7,11.8,10.7c6.6,0,11.9-5.4,11.9-11.9
		C248.8,110.8,243.5,105.4,236.9,105.4z"/>
	<g>
		<g>
			<g>
				<g>
					<path class="st4" d="M216.4,148.2c-1.8-27.1-24.8-40.1-42.6-47.2l-19-7.5c-14.4-5.6-26.5-15.2-27.2-26.6
						c-0.8-12.3,8.6-23.5,27-24.6c20.1-1.2,33.3,16.1,38.9,28.4c2.7,2.3,9.6,1.7,10.8-1.4c0,0,2.8-5,2.9-9.2
						c0.1-6.5-5.6-10.7-5.6-10.7C186.6,38.2,168,32,148,32.8c-8.3,0.3-16.2,1.9-23.7,4.4C103.3,45.9,92,62,93.5,81.7
						c1.6,24.4,24.6,37.9,45.3,45.6c17.2,6.4,39.2,17,40.5,36.9c0.8,12.3-7.9,25.5-28.5,26.7c-23.7,1.4-43.9-20.2-50.6-35.9
						c-2.4-2.6-8.8-1.9-10.6,1.4c0,0-2.4,3-2.4,9.6c0.5,5.7,5.3,10.2,5.3,10.2c16,15.8,38.2,25.2,62.4,24.2
						c17.3-0.7,33.1-6.6,46-16.1C211.7,175,217.3,162.6,216.4,148.2z"/>
				</g>
				<g>
					<path class="st0" d="M151.6,204.2c-22.9,0-45.2-9.1-61.6-25.3c-0.5-0.5-5.8-5.6-6.4-12.5l0-0.3c-0.1-6.7,2.2-10.5,3-11.6
						c1.4-2.4,4.2-4.1,7.5-4.6c3.6-0.5,6.9,0.5,8.9,2.6l0.5,0.5l0.3,0.6c6,14.3,25.2,34.9,46.9,33.6c8.8-0.5,15.8-3.4,20.2-8.4
						c3.5-3.9,5.2-9,4.8-14.3c-1.2-17.9-22.3-27.8-38.1-33.7c-30.3-11.3-46.3-27.7-47.7-48.8c-1.6-21.3,10.5-38.9,33.2-48.1
						c8.2-2.8,16.5-4.4,24.9-4.7c20-0.8,39.8,5.3,55.9,17.2c0.3,0.2,7.2,5.4,7.1,13.7c0,4.6-2.6,9.6-3.2,10.8
						c-1,2.2-3.1,3.7-6.1,4.5c-3.3,0.8-7.8,0.5-10.6-1.9l-0.6-0.5l-0.3-0.7c-2.1-4.6-13.6-27.5-35.2-26.2c-8.4,0.5-15,3.3-19.2,8
						c-3.1,3.5-4.6,7.9-4.3,12.7c0.6,8.7,10.1,17.6,24.9,23.4l19,7.6c28.8,11.4,43.5,27.9,44.9,50.4l0,0c1,15.3-4.8,28.8-16.6,39.2
						l-0.2,0.2c-14,10.3-30.6,16.1-48.1,16.8C154,204.2,152.8,204.2,151.6,204.2z M91,165.8c0.5,4.1,4.1,7.7,4.2,7.7
						c15.8,15.6,37.5,24,59.7,23.1c15.9-0.7,31.1-6,43.9-15.3c10-8.8,14.8-20.2,14-33l0,0c-1.3-19.3-14.4-33.7-40.3-44l-19-7.5
						c-17.7-6.9-28.8-18-29.6-29.8c-0.4-6.7,1.7-13.1,6.1-18.1c5.5-6.2,13.9-9.9,24.4-10.5c20.1-1.2,34.8,14.3,42,29.5
						c1.2,0.4,3.7,0.2,4.5-0.4l0.1-0.3c0.7-1.2,2.4-4.8,2.4-7.4c0-4.5-4.1-7.7-4.1-7.7c-14.7-10.9-32.8-16.5-51.1-15.7
						c-7.7,0.3-15.3,1.7-22.6,4.2c-19.3,7.9-29.7,22.7-28.4,40.6c1.2,18,15.6,32.2,42.9,42.4c17.7,6.6,41.5,17.9,43,40.2
						c0.5,7.3-1.9,14.3-6.7,19.7c-4,4.5-11.7,10.1-25.3,10.9c-25.2,1.5-46.4-20.6-53.8-37.2c-0.4-0.2-1.2-0.3-2.2-0.2
						c-1.1,0.2-1.9,0.6-2,0.9l-0.4,0.6C92.5,158.8,91,161,91,165.8z M200.9,67.6L200.9,67.6L200.9,67.6z"/>
				</g>
			</g>
		</g>
	</g>
	<g>
		<path class="st2" d="M216.4,148.2c-1.8-27.1-24.8-40.1-42.6-47.2l-19-7.5c-14.4-5.6-26.5-15.2-27.2-26.6
			c-0.8-12.3,8.6-23.5,27-24.6c20.1-1.2,33.3,16.1,38.9,28.4c2.7,2.3,9.6,1.7,10.8-1.4c0,0,2.8-5,2.9-9.2c0.1-6.5-5.6-10.7-5.6-10.7
			C186.6,38.2,168,32,148,32.8c-8.3,0.3-16.2,1.9-23.7,4.4C103.3,45.9,92,62,93.5,81.7c1.6,24.4,24.6,37.9,45.3,45.6
			c17.2,6.4,39.2,17,40.5,36.9c0.8,12.3-7.9,25.5-28.5,26.7c-23.7,1.4-43.9-20.2-50.6-35.9c-2.4-2.6-8.8-1.9-10.6,1.4
			c0,0-2.4,3-2.4,9.6c0.5,5.7,5.3,10.2,5.3,10.2c16,15.8,38.2,25.2,62.4,24.2c17.3-0.7,33.1-6.6,46-16.1
			C211.7,175,217.3,162.6,216.4,148.2z"/>
	</g>
</g>
</svg>
