<?xml version="1.0" encoding="UTF-8"?>
<svg id="_レイヤー_1" data-name="レイヤー 1" xmlns="http://www.w3.org/2000/svg" viewBox="0 0 75.8 75.8">
  <defs>
    <style>
      .cls-1 {
        fill: #fff;
      }

      .cls-2 {
        fill: #5c33ac;
      }

      .cls-3 {
        fill: #330097;
      }

      .cls-4 {
        fill: #118b3b;
      }
    </style>
  </defs>
  <path class="cls-3" d="m75.8,37.9c0,20.9-17,37.9-37.9,37.9S0,58.8,0,37.9,17,0,37.9,0c21,0,37.9,16.9,37.9,37.9Z"/>
  <path class="cls-1" d="m37.9,4.3c18.5,0,33.5,15,33.5,33.5s-15,33.5-33.5,33.5S4.4,56.3,4.4,37.8c0-18.4,15-33.5,33.5-33.5m0-2.1C18.2,2.2,2.2,18.1,2.2,37.9s16,35.7,35.7,35.7,35.7-16,35.7-35.7S57.7,2.2,37.9,2.2h0Z"/>
  <path class="cls-2" d="m65.9,34.1c-2,0-3.6,1.5-3.8,3.5-3.3-.3-9.1-.7-17.5-.4-.9,0-1.7.1-2.3.1.6-.2,1.4-.4,2.2-.6,7.6-2.2,12.8-4.2,15.9-5.5.5.9,1.6,1.5,2.6,1.3.1,0,.3,0,.4-.1,0,0,.1,0,.1-.1.8-.3,1.3-.9,1.5-1.7.1-.5.1-1,0-1.5-.4-1.4-1.9-2.1-3.3-1.7-.5.2-.9.5-1.2.9-.4.5-.6,1.2-.5,1.9-3.3.7-8.7,2.2-16.1,4.9-.8.3-1.5.6-2.2.8.6-.4,1.2-.8,1.9-1.3,7-4.7,11.5-8.4,13.9-10.6,1.3,1.4,3.5,1.7,5.1.5,1.7-1.3,2.1-3.7.9-5.4-1.3-1.7-3.7-2.1-5.4-.9-1.6,1.2-2,3.4-1.1,5.1-2.8,1.7-7.7,4.8-14.4,10-.7.6-1.3,1-1.8,1.5.4-.5.9-1.1,1.5-1.8,4.9-6.2,7.9-10.9,9.7-13.8.3.2.7.2,1,.3.8,0,1.7-.3,2.2-1.1.8-1.2.6-2.8-.6-3.6-.4-.3-.9-.5-1.4-.5-.8,0-1.7.3-2.2,1.1-.7,1-.6,2.4.2,3.3-2.2,2.5-5.7,6.9-10.1,13.4-.5.7-.9,1.4-1.3,1.9.2-.6.5-1.3.8-2.2,2.9-7.9,4.4-13.5,5.1-16.7,1.9.4,3.9-.7,4.5-2.6.7-2-.5-4.2-2.5-4.9-2-.7-4.2.5-4.9,2.5-.6,1.9.3,3.9,2.1,4.7-1.3,3-3.4,8.4-5.7,16.5-.2.9-.4,1.6-.6,2.2,0-.7.1-1.4.1-2.3.3-7.9,0-13.5-.3-16.8,1.2-.2,2.1-1.3,2.1-2.5,0-1.4-1.2-2.6-2.6-2.6s-2.6,1.2-2.6,2.6c0,1.3.9,2.3,2.1,2.5-.3,3.4-.6,9-.3,16.8,0,.9.1,1.7.1,2.3-.2-.6-.4-1.4-.6-2.2-2.3-8.1-4.4-13.5-5.7-16.5,1.8-.8,2.7-2.8,2.1-4.7-.7-2-2.8-3.1-4.9-2.5-2,.7-3.1,2.8-2.5,4.9.6,1.9,2.6,3,4.5,2.6.7,3.2,2.2,8.8,5.1,16.7.3.8.6,1.6.8,2.2-.4-.6-.8-1.2-1.3-1.9-4.4-6.6-7.9-10.9-10.1-13.4h0c.8-.9.9-2.3.2-3.3-.5-.7-1.4-1.1-2.2-1.1-.5,0-1,.2-1.4.5-1.2.8-1.4,2.5-.6,3.6.5.7,1.4,1.1,2.2,1.1.3,0,.7-.1,1-.3,1.7,2.9,4.8,7.6,9.7,13.8.6.7,1,1.3,1.5,1.8-.5-.4-1.1-.9-1.8-1.5-6.6-5.2-11.5-8.3-14.4-10,1-1.7.6-3.9-1.1-5.1-1.7-1.3-4.2-.9-5.4.9-1.3,1.7-.9,4.2.9,5.4,1.6,1.2,3.8.9,5.1-.5,2.5,2.2,6.9,5.9,13.9,10.6.7.5,1.4.9,1.9,1.3-.6-.2-1.3-.5-2.2-.8-7.4-2.7-12.8-4.2-16.1-4.9.2-1.2-.6-2.4-1.8-2.8-.3-.1-.7-.1-1-.1-1,.1-1.9.8-2.2,1.8-.4,1.4.3,2.8,1.7,3.3.3.1.7.1,1,.1.9-.1,1.6-.6,2-1.3,3.1,1.3,8.3,3.3,15.9,5.5.9.2,1.6.4,2.2.6-.7,0-1.4-.1-2.3-.1-8.4-.3-14.2,0-17.5.4-.2-1.9-1.8-3.5-3.8-3.5-2.1,0-3.9,1.7-3.9,3.9s1.7,3.9,3.9,3.9c2,0,3.6-1.5,3.8-3.5,3.3.3,9.1.7,17.5.4.9,0,1.7-.1,2.3-.1-.6.2-1.4.4-2.2.6-7.6,2.2-12.8,4.2-15.9,5.5-.1-.2-.2-.3-.3-.5-.7-.8-1.7-1.1-2.8-.8-1.2.4-1.9,1.5-1.8,2.7,0,.2.1.3.1.5.4,1.4,1.9,2.1,3.3,1.7,1.2-.4,1.9-1.6,1.8-2.8,3.3-.7,8.7-2.2,16.1-4.9.8-.3,1.5-.6,2.2-.8-.6.4-1.2.8-1.9,1.3-7,4.7-11.5,8.4-13.9,10.6-1.3-1.5-3.5-1.7-5.1-.6-1.7,1.3-2.1,3.7-.9,5.4,1.3,1.7,3.7,2.1,5.4.9,1.6-1.2,2-3.4,1.1-5,2.8-1.7,7.7-4.8,14.4-10,.7-.6,1.3-1,1.8-1.5-.4.5-.9,1.1-1.5,1.8-4.9,6.2-7.9,10.9-9.7,13.8-1.1-.5-2.5-.2-3.2.8-.8,1.2-.6,2.8.6,3.6s2.8.6,3.6-.6c.7-1,.6-2.4-.2-3.3,2.2-2.5,5.7-6.9,10.1-13.4.5-.7.9-1.4,1.3-2-.2.6-.5,1.3-.8,2.2-2.9,7.9-4.4,13.5-5.1,16.7-1.9-.4-3.9.7-4.5,2.6-.7,2,.5,4.2,2.5,4.9,2,.7,4.2-.5,4.9-2.5.6-1.9-.3-3.9-2.1-4.7,1.3-3,3.4-8.4,5.7-16.5.2-.9.4-1.6.6-2.2,0,.7-.1,1.4-.1,2.3-.3,7.9,0,13.5.3,16.8-.1,0-.3.1-.4.1-1,.4-1.7,1.3-1.7,2.4,0,.5.2,1,.4,1.4.3.5.8.9,1.4,1q.1,0,.2.1h1q.1,0,.2-.1c.6-.2,1.1-.5,1.4-1,.3-.4.4-.9.4-1.4,0-1.1-.7-2.1-1.7-2.4-.1,0-.3-.1-.4-.1.3-3.4.6-9,.3-16.8,0-.9-.1-1.7-.1-2.3.2.6.4,1.4.6,2.2,2.3,8.1,4.4,13.5,5.7,16.5-1.8.8-2.7,2.8-2.1,4.7.7,2,2.8,3.1,4.9,2.5,2-.7,3.2-2.9,2.5-4.9-.6-1.9-2.6-3-4.5-2.6-.7-3.2-2.2-8.8-5.1-16.7-.3-.8-.6-1.6-.8-2.2.4.6.8,1.2,1.3,2,4.7,6.5,8.3,10.9,10.5,13.4-.8.9-1,2.3-.2,3.3.8,1.2,2.5,1.4,3.6.6,1.2-.8,1.4-2.5.6-3.6-.7-1-2.1-1.3-3.2-.8-1.7-2.9-4.8-7.6-9.7-13.8-.6-.7-1-1.3-1.5-1.8.5.4,1.1.9,1.8,1.5,6.6,5.2,11.5,8.3,14.4,10-1,1.7-.6,3.9,1.1,5,1.7,1.3,4.2.9,5.4-.9,1.3-1.7.9-4.2-.9-5.4-1.6-1.2-3.8-.9-5.1.6-2.5-2.2-6.9-5.9-13.9-10.6-.7-.5-1.4-.9-1.9-1.3.6.2,1.3.5,2.2.8,7.4,2.7,12.8,4.2,16.1,4.9-.2,1.2.6,2.4,1.8,2.8.2.1.3.1.5.1,1.2.1,2.4-.6,2.7-1.8.4-1.4-.3-2.8-1.7-3.2h-.1c-1.2-.3-2.4.2-3,1.2-3.1-1.3-8.3-3.3-15.9-5.5-.9-.2-1.6-.4-2.2-.6.7,0,1.4.1,2.3.1,8.4.3,14.2,0,17.5-.4.2,1.9,1.8,3.5,3.8,3.5,2.1,0,3.9-1.7,3.9-3.9-.1-2.1-1.8-3.8-3.9-3.8Z"/>
  <g>
    <path class="cls-4" d="m59.2,48c-.6-8.8-8-13-13.8-15.3l-6.2-2.5c-4.7-1.8-8.6-4.9-8.8-8.6-.3-4,2.8-7.6,8.8-8,6.5-.4,10.8,5.2,12.6,9.2.9.8,3.1.5,3.5-.4,0,0,.9-1.6.9-3,0-2.1-1.8-3.5-1.8-3.5-4.8-3.6-10.9-5.6-17.4-5.3-2.7.1-5.3.6-7.7,1.4-6.8,2.8-10.5,8-10,14.4.5,7.9,8,12.3,14.7,14.8,5.6,2.1,12.7,5.5,13.2,12,.3,4-2.6,8.3-9.3,8.7-7.7.5-14.3-6.5-16.4-11.6-.8-.8-2.9-.6-3.4.4,0,0-.8,1-.8,3.1.2,1.8,1.7,3.3,1.7,3.3,5.2,5.1,12.4,8.2,20.3,7.8,5.6-.2,10.7-2.1,14.9-5.2,3.5-3,5.3-7,5-11.7Z"/>
    <path class="cls-3" d="m38.2,66.2c-7.4,0-14.7-3-20-8.2-.2-.2-1.9-1.8-2.1-4.1v-.1c0-2.2.7-3.4,1-3.8.5-.8,1.4-1.3,2.4-1.5,1.2-.2,2.2.2,2.9.9l.1.2.1.2c2,4.6,8.2,11.3,15.2,10.9,2.9-.2,5.1-1.1,6.6-2.7,1.1-1.3,1.7-2.9,1.6-4.6-.4-5.8-7.2-9-12.4-10.9-9.8-3.7-15-9-15.5-15.8-.5-6.9,3.4-12.6,10.8-15.6,2.7-.9,5.4-1.4,8.1-1.5,6.5-.3,12.9,1.7,18.1,5.6.1.1,2.3,1.8,2.3,4.5,0,1.5-.9,3.1-1.1,3.5-.3.7-1,1.2-2,1.4-1.1.3-2.5.2-3.4-.6l-.2-.2-.1-.2c-.7-1.5-4.4-8.9-11.4-8.5-2.7.2-4.9,1.1-6.2,2.6-1,1.1-1.5,2.6-1.4,4.1.2,2.8,3.3,5.7,8.1,7.6l6.2,2.5c9.3,3.4,14,8.7,14.5,16h0c.3,5-1.5,9.4-5.4,12.7l-.1.1c-4.5,3.3-9.9,5.2-15.6,5.5h-1.1Zm-19.7-12.5c.2,1.3,1.3,2.5,1.4,2.5,5.1,5.1,12.2,7.8,19.4,7.5,5.2-.2,10.1-1.9,14.2-5,3.2-2.8,4.8-6.5,4.5-10.7h0c-.4-6.3-4.7-10.9-13.1-14.3l-6.2-2.4c-5.8-2.2-9.3-5.8-9.6-9.7-.1-2.2.6-4.3,2-5.9,1.8-2,4.5-3.2,7.9-3.4,6.5-.4,11.3,4.6,13.6,9.6.4.1,1.2.1,1.5-.1v-.1c.2-.4.8-1.6.8-2.4,0-1.5-1.3-2.5-1.3-2.5-4.8-3.5-10.6-5.4-16.6-5.1-2.5.1-5,.6-7.3,1.4-6.3,2.6-9.6,7.4-9.2,13.2.4,5.8,5.1,10.5,13.9,13.7,5.8,2.1,13.5,5.8,13.9,13,.2,2.4-.6,4.6-2.2,6.4-1.3,1.5-3.8,3.3-8.2,3.5-8.2.5-15-6.7-17.5-12.1-.1-.1-.4-.1-.7-.1-.4.1-.6.2-.7.3l-.1.2c.1.2-.4,1-.4,2.5Zm35.7-31.9h0Z"/>
  </g>
  <path class="cls-1" d="m59.2,48c-.6-8.8-8-13-13.8-15.3l-6.2-2.5c-4.7-1.8-8.6-4.9-8.8-8.6-.3-4,2.8-7.6,8.8-8,6.5-.4,10.8,5.2,12.6,9.2.9.8,3.1.5,3.5-.4,0,0,.9-1.6.9-3,0-2.1-1.8-3.5-1.8-3.5-4.8-3.6-10.9-5.6-17.4-5.3-2.7.1-5.3.6-7.7,1.4-6.8,2.8-10.5,8-10,14.4.5,7.9,8,12.3,14.7,14.8,5.6,2.1,12.7,5.5,13.2,12,.3,4-2.6,8.3-9.3,8.7-7.7.5-14.3-6.5-16.4-11.6-.8-.8-2.9-.6-3.4.4,0,0-.8,1-.8,3.1.2,1.8,1.7,3.3,1.7,3.3,5.2,5.1,12.4,8.2,20.3,7.8,5.6-.2,10.7-2.1,14.9-5.2,3.5-3,5.3-7,5-11.7Z"/>
</svg>