<?xml version="1.0" encoding="utf-8"?>
<!-- Generator: Adobe Illustrator 27.6.1, SVG Export Plug-In . SVG Version: 6.00 Build 0)  -->
<svg version="1.1" id="レイヤー_1" xmlns="http://www.w3.org/2000/svg" xmlns:xlink="http://www.w3.org/1999/xlink" x="0px"
	 y="0px" viewBox="0 0 371.8 76.9" style="enable-background:new 0 0 371.8 76.9;" xml:space="preserve">
<style type="text/css">
	.st0{fill:#330097;}
	.st1{fill:#88008D;}
	.st2{fill:#FFFFFF;}
	.st3{fill:#5C33AC;}
	.st4{fill:#118B3B;}
</style>
<path class="st0" d="M113.3,34.1h-11v-3.4c0-1.6-0.1-2.6-0.4-3s-0.7-0.6-1.4-0.6c-0.7,0-1.2,0.3-1.6,0.9s-0.5,1.5-0.5,2.6
	c0,1.5,0.2,2.7,0.6,3.4c0.4,0.8,1.5,1.7,3.3,2.8c5.2,3.1,8.5,5.6,9.9,7.6s2,5.2,2,9.6c0,3.2-0.4,5.6-1.1,7.1
	c-0.8,1.5-2.2,2.8-4.4,3.8c-2.2,1-4.7,1.6-7.5,1.6c-3.1,0-5.8-0.6-8.1-1.8c-2.2-1.2-3.7-2.7-4.4-4.6c-0.7-1.8-1-4.5-1-7.9v-3h11v5.5
	c0,1.7,0.2,2.8,0.5,3.3s0.8,0.7,1.6,0.7c0.8,0,1.3-0.3,1.7-0.9c0.4-0.6,0.6-1.5,0.6-2.8c0-2.7-0.4-4.4-1.1-5.3
	c-0.7-0.8-2.6-2.2-5.5-4.1c-2.9-1.9-4.9-3.3-5.8-4.2s-1.7-2.1-2.4-3.6c-0.6-1.5-0.9-3.5-0.9-5.9c0-3.5,0.4-6,1.3-7.6
	s2.3-2.9,4.3-3.8s4.3-1.4,7.1-1.4c3,0,5.6,0.5,7.8,1.5c2.1,1,3.6,2.2,4.3,3.7c0.7,1.5,1,4,1,7.6L113.3,34.1L113.3,34.1z"/>
<path class="st0" d="M129.8,56.7c0,1.7-0.1,2.7-0.3,3.1c-0.2,0.4-0.6,0.6-1.3,0.6c-0.7,0-1.1-0.3-1.4-0.8c-0.2-0.5-0.3-1.6-0.3-3.4
	c0-1.5,0.1-2.7,0.4-3.5s1.2-1.8,2.9-3L129.8,56.7L129.8,56.7z M126.6,41.7c0-1.9,0.1-3,0.3-3.5c0.2-0.4,0.6-0.7,1.3-0.7
	c0.6,0,1,0.3,1.3,0.8s0.4,1.7,0.4,3.4c0,1.4-0.1,2.3-0.4,2.8c-0.2,0.5-2,1.3-5.4,2.6c-3.1,1.2-5.1,2.3-5.9,3.2s-1.2,2.6-1.2,5.1v2.8
	c0,3.4,0.7,5.6,2.2,6.6s3.1,1.5,4.9,1.5c1.4,0,2.5-0.3,3.5-0.9c1-0.6,1.8-1.5,2.4-2.7v3h9.9V48.9c0-5.5-0.2-9.2-0.5-10.9
	c-0.4-1.8-1.4-3.3-3.2-4.5s-4.4-1.8-7.8-1.8c-2.9,0-5.2,0.5-7,1.6s-3,2.3-3.6,3.7s-0.9,3.4-0.9,6v2.2h9.5v-3.5H126.6z"/>
<path class="st0" d="M154.2,27.8V33h2.8v5.3h-2.8v18c0,2.2,0.1,3.4,0.3,3.7s1.2,0.4,2.9,0.4v5.4h-4.1c-2.3,0-4-0.1-5-0.3
	c-1-0.2-1.9-0.6-2.6-1.3c-0.8-0.7-1.2-1.5-1.4-2.4s-0.3-3-0.3-6.3v-17h-2.2v-5.3h2.2V28h10.2V27.8z"/>
<path class="st0" d="M169.2,44.1v-2.5c0-1.9,0.1-3.1,0.2-3.5c0.2-0.4,0.6-0.6,1.3-0.6c0.6,0,0.9,0.3,1.1,0.8
	c0.2,0.5,0.3,1.6,0.3,3.4v2.5h-2.9V44.1z M182.3,45.1c0-3.2-0.4-5.8-1.1-7.5c-0.8-1.8-2-3.2-3.9-4.3s-4.2-1.6-7.1-1.6
	c-2.3,0-4.4,0.5-6.2,1.3c-1.8,0.9-3.1,2.2-3.9,3.9c-0.8,1.7-1.2,4-1.2,6.9v9.8c0,2.5,0.2,4.4,0.5,5.7c0.4,1.3,1,2.5,1.9,3.6
	s2.2,1.9,3.8,2.6c1.6,0.6,3.5,0.9,5.7,0.9s4.1-0.3,5.5-0.9c1.5-0.6,2.7-1.6,3.6-2.8c1-1.3,1.6-2.4,1.8-3.6c0.3-1.1,0.4-2.7,0.4-4.8
	v-2.5h-9.7v4.4c0,1.7-0.1,2.8-0.4,3.4c-0.3,0.6-0.8,0.9-1.5,0.9c-0.6,0-1-0.2-1.2-0.7c-0.2-0.4-0.3-1.4-0.3-2.9v-7.2h13.1v-4.6
	H182.3z"/>
<path class="st0" d="M195.8,32.2l-0.4,4.4c1.5-3.1,3.6-4.8,6.5-5v11.8c-1.9,0-3.2,0.3-4.1,0.8c-0.9,0.5-1.4,1.2-1.6,2.1
	c-0.2,0.9-0.3,3-0.3,6.2v13.2h-10.2V32.2H195.8z"/>
<path class="st0" d="M216.5,56.7c0,1.7-0.1,2.7-0.3,3.1c-0.2,0.4-0.6,0.6-1.3,0.6s-1.1-0.3-1.4-0.8c-0.2-0.5-0.3-1.6-0.3-3.4
	c0-1.5,0.1-2.7,0.4-3.5c0.3-0.8,1.2-1.8,2.9-3L216.5,56.7L216.5,56.7z M213.2,41.7c0-1.9,0.1-3,0.3-3.5c0.2-0.4,0.6-0.7,1.3-0.7
	c0.6,0,1,0.3,1.3,0.8s0.4,1.7,0.4,3.4c0,1.4-0.1,2.3-0.4,2.8c-0.2,0.5-2,1.3-5.4,2.6c-3.1,1.2-5.1,2.3-5.9,3.2
	c-0.8,0.9-1.2,2.6-1.2,5.1v2.8c0,3.4,0.7,5.6,2.2,6.6s3.1,1.5,4.9,1.5c1.4,0,2.5-0.3,3.5-0.9s1.8-1.5,2.4-2.7v3h9.9V48.9
	c0-5.5-0.2-9.2-0.5-10.9c-0.4-1.8-1.4-3.3-3.2-4.5c-1.7-1.2-4.4-1.8-7.8-1.8c-2.9,0-5.2,0.5-7,1.6s-3,2.3-3.6,3.7s-0.9,3.4-0.9,6
	v2.2h9.5v-3.5H213.2z"/>
<path class="st0" d="M240.6,24.9v5.3h-10.5v-5.3H240.6z M240.6,32.2v33.5h-10.5V32.2H240.6z"/>
<path class="st0" d="M255,27.8V33h2.8v5.3H255v18c0,2.2,0.1,3.4,0.3,3.7c0.2,0.3,1.2,0.4,2.9,0.4v5.4h-4.1c-2.3,0-4-0.1-5-0.3
	c-1-0.2-1.9-0.6-2.6-1.3c-0.8-0.7-1.2-1.5-1.4-2.4s-0.3-3-0.3-6.3v-17h-2.2v-5.3h2.2V28H255V27.8z"/>
<path class="st0" d="M272.8,56.9c0,1.4-0.1,2.4-0.3,2.8c-0.2,0.4-0.6,0.7-1.2,0.7s-1-0.2-1.2-0.7s-0.3-1.5-0.3-3.1V41.5
	c0-1.7,0.1-2.8,0.3-3.2c0.2-0.4,0.6-0.7,1.2-0.7s1,0.2,1.2,0.7c0.2,0.4,0.3,1.5,0.3,3.2V56.9z M282.6,38.7c-0.3-1.2-0.9-2.3-1.8-3.4
	c-0.9-1.1-2.2-2-3.8-2.7c-1.6-0.7-3.6-1-5.9-1c-2.7,0-5,0.5-6.7,1.6s-3,2.5-3.6,4.2c-0.7,1.7-1,4.2-1,7.3v8.6c0,2.8,0.2,5,0.6,6.4
	s1,2.6,1.9,3.6s2.1,1.7,3.6,2.2c1.6,0.5,3.5,0.7,5.7,0.7c2,0,3.8-0.3,5.4-0.9s2.8-1.5,3.8-2.7s1.6-2.5,1.9-3.9s0.5-3.6,0.5-6.6v-8.2
	C283.1,41.6,282.9,39.9,282.6,38.7z"/>
<circle class="st1" cx="290.5" cy="60.5" r="4.5"/>
<rect x="356.6" y="19.6" class="st1" width="12.1" height="46.3"/>
<path class="st1" d="M330.6,19.6L305,55.9h-6.2v9.9h7.9c2.7,0,5.2-1.3,6.8-3.5l22.8-32.4h1.7v20h-14.6v9.8H338v6.1h12.1V19.6H330.6z
	"/>
<g>
	<path class="st0" d="M124.1,23.3h-3c-0.3,0-0.6,0.2-0.6,0.5v1c0,0.3,0.3,0.5,0.6,0.5h3c3.1,0,4.8-1.5,4.8-4.1v-1.9h0.5
		c0.3,0,0.6-0.2,0.6-0.5v-1c0-0.3-0.3-0.5-0.6-0.5h-0.5v-1c0-0.3-0.3-0.5-0.6-0.5h-1.1c-0.3,0-0.6,0.2-0.6,0.5v1h-3.8v-1
		c0-0.3-0.3-0.5-0.6-0.5h-1.1c-0.3,0-0.6,0.2-0.6,0.5v1h-0.8c-0.3,0-0.6,0.2-0.6,0.5v1c0,0.3,0.3,0.5,0.6,0.5h0.8v2.1
		c0,0.3,0.3,0.5,0.6,0.5h1.1c0.3,0,0.6-0.2,0.6-0.5v-2.1h3.8v1.9C126.5,22.8,125.8,23.3,124.1,23.3z"/>
	<g>
		<path class="st0" d="M153.5,21.4c0,0.9-0.6,1.9-2.2,1.9h-4.9c-0.3,0-0.6,0.2-0.6,0.5v1c0,0.3,0.3,0.5,0.6,0.5h4.9
			c2.7,0,4.6-1.7,4.6-4V19c0-0.3-0.3-0.5-0.6-0.5h-9.9c-0.3,0-0.6,0.2-0.6,0.5v1c0,0.3,0.3,0.5,0.6,0.5h8.2v0.9H153.5z"/>
		<path class="st0" d="M155.9,16.4c0-0.3-0.3-0.5-0.6-0.5h-9.9c-0.3,0-0.6,0.2-0.6,0.5v1c0,0.3,0.3,0.5,0.6,0.5h9.9
			c0.3,0,0.6-0.2,0.6-0.5V16.4z"/>
	</g>
	<path class="st0" d="M168.4,16.1c0-0.2-0.3-0.4-0.6-0.3c0,0-2.7,1.3-4.7,1.6c-2,0.4-4.9,0.2-4.9,0.2c-0.2,0-0.5,0.2-0.5,0.5v1
		c0,0.3,0.2,0.4,0.5,0.4c0,0,2.4,0.2,4.4-0.1v5.3c0,0.3,0.3,0.5,0.6,0.5h1.1c0.3,0,0.6-0.2,0.6-0.5v-5.9c1.5-0.4,2.3-0.8,3.1-1.1
		c0.2-0.1,0.4-0.2,0.4-0.5L168.4,16.1z"/>
	<path class="st0" d="M224.1,16.1c0-0.2-0.3-0.4-0.6-0.3c0,0-2.7,1.3-4.7,1.6c-2,0.4-4.9,0.2-4.9,0.2c-0.2,0-0.5,0.2-0.5,0.5v1
		c0,0.3,0.2,0.4,0.5,0.4c0,0,2.4,0.2,4.4-0.1v5.3c0,0.3,0.3,0.5,0.6,0.5h1.1c0.3,0,0.6-0.2,0.6-0.5v-5.9c1.5-0.4,2.3-0.8,3.1-1.1
		c0.2-0.1,0.4-0.2,0.4-0.5L224.1,16.1z"/>
	<path class="st0" d="M178,19.8l-5.4-0.7l0,0v-2.7c0-0.3-0.3-0.5-0.6-0.5h-1.1c-0.3,0-0.6,0.2-0.6,0.5v8.5c0,0.3,0.3,0.5,0.6,0.5
		h1.1c0.3,0,0.6-0.2,0.6-0.5v-3.7l5.1,0.7c0.3,0,0.6-0.2,0.7-0.4l0.2-0.9C178.6,20.1,178.3,19.8,178,19.8z"/>
	<g>
		<path class="st0" d="M133.5,17.9h7.9c0.3,0,0.6-0.2,0.6-0.5v-1c0-0.3-0.3-0.5-0.6-0.5h-7.9c-0.3,0-0.6,0.2-0.6,0.5v1
			C132.8,17.6,133.1,17.9,133.5,17.9z"/>
		<path class="st0" d="M142.3,18.6h-9.9c-0.3,0-0.6,0.2-0.6,0.5v1c0,0.3,0.3,0.5,0.6,0.5h5.2c-0.1,0.4-0.3,1-0.8,1.4
			c-0.8,0.7-2,1.1-3.7,1.2c-0.1,0-0.4,0.1-0.4,0.4c0,0.2,0,1,0,1.3s0.4,0.4,0.6,0.4c2.4-0.1,4.3-0.7,5.5-1.9c0.9-0.9,1.3-2,1.4-2.8
			h2.3c0.3,0,0.6-0.2,0.6-0.5v-1C143,18.8,142.7,18.6,142.3,18.6z"/>
	</g>
	<path class="st0" d="M183,24.2v-0.7c0-0.4,0.3-0.6,0.8-0.6h3.1v-5.2h-2.8c-0.5,0-0.8-0.2-0.8-0.6v-0.7c0-0.4,0.3-0.6,0.8-0.6h8.1
		c0.5,0,0.8,0.2,0.8,0.6v0.7c0,0.4-0.3,0.6-0.8,0.6h-2.7v5.2h3c0.5,0,0.8,0.2,0.8,0.6v0.7c0,0.4-0.3,0.6-0.8,0.6h-8.7
		C183.3,24.8,183,24.6,183,24.2z"/>
	<path class="st0" d="M194,21v-0.7c0-0.4,0.3-0.6,0.8-0.6h5.6c0.5,0,0.8,0.2,0.8,0.6V21c0,0.4-0.3,0.6-0.8,0.6h-5.6
		C194.2,21.6,194,21.4,194,21z"/>
	<path class="st0" d="M208.3,19.4c0.6-0.4,1.2-1.1,1.5-2.2h-7.2c-0.5,0-0.8-0.2-0.8-0.6v-0.7c0-0.4,0.3-0.6,0.8-0.6h8.9
		c0.5,0,0.8,0.2,0.8,0.6v0.9c0,0.3,0,0.5-0.1,0.7c-0.5,1.5-1.7,2.8-3.4,3.8c-0.5,0.3-0.9,0.1-0.9-0.4v-0.7
		C207.9,19.9,208,19.7,208.3,19.4z M201.9,24c0-0.4,0.2-0.6,0.6-0.7c1.9-0.8,2.5-2.1,2.5-3.5v-0.6c0-0.4,0.3-0.6,0.8-0.6h0.8
		c0.5,0,0.8,0.2,0.8,0.6v0.6c0,2.6-1.4,4.7-4.5,5.7c-0.5,0.2-0.9-0.1-0.9-0.5v-1H201.9z"/>
</g>
<g>
	<path class="st0" d="M76.8,38.5c0,20.9-17,37.9-37.9,37.9S1,59.4,1,38.5S18,0.6,38.9,0.6C59.9,0.6,76.8,17.5,76.8,38.5z"/>
	<path class="st2" d="M38.9,4.9c18.5,0,33.5,15,33.5,33.5s-15,33.5-33.5,33.5S5.4,56.9,5.4,38.4C5.4,20,20.4,4.9,38.9,4.9 M38.9,2.8
		C19.2,2.8,3.2,18.7,3.2,38.5c0,19.7,16,35.7,35.7,35.7s35.7-16,35.7-35.7C74.6,18.7,58.7,2.8,38.9,2.8L38.9,2.8z"/>
	<path class="st3" d="M66.9,34.7c-2,0-3.6,1.5-3.8,3.5c-3.3-0.3-9.1-0.7-17.5-0.4c-0.9,0-1.7,0.1-2.3,0.1c0.6-0.2,1.4-0.4,2.2-0.6
		c7.6-2.2,12.8-4.2,15.9-5.5c0.5,0.9,1.6,1.5,2.6,1.3c0.1,0,0.3,0,0.4-0.1c0,0,0.1,0,0.1-0.1c0.8-0.3,1.3-0.9,1.5-1.7
		c0.1-0.5,0.1-1,0-1.5c-0.4-1.4-1.9-2.1-3.3-1.7c-0.5,0.2-0.9,0.5-1.2,0.9c-0.4,0.5-0.6,1.2-0.5,1.9c-3.3,0.7-8.7,2.2-16.1,4.9
		c-0.8,0.3-1.5,0.6-2.2,0.8c0.6-0.4,1.2-0.8,1.9-1.3c7-4.7,11.5-8.4,13.9-10.6c1.3,1.4,3.5,1.7,5.1,0.5c1.7-1.3,2.1-3.7,0.9-5.4
		c-1.3-1.7-3.7-2.1-5.4-0.9c-1.6,1.2-2,3.4-1.1,5.1c-2.8,1.7-7.7,4.8-14.4,10c-0.7,0.6-1.3,1-1.8,1.5c0.4-0.5,0.9-1.1,1.5-1.8
		c4.9-6.2,7.9-10.9,9.7-13.8c0.3,0.2,0.7,0.2,1,0.3c0.8,0,1.7-0.3,2.2-1.1c0.8-1.2,0.6-2.8-0.6-3.6c-0.4-0.3-0.9-0.5-1.4-0.5
		c-0.8,0-1.7,0.3-2.2,1.1c-0.7,1-0.6,2.4,0.2,3.3c-2.2,2.5-5.7,6.9-10.1,13.4c-0.5,0.7-0.9,1.4-1.3,1.9c0.2-0.6,0.5-1.3,0.8-2.2
		c2.9-7.9,4.4-13.5,5.1-16.7c1.9,0.4,3.9-0.7,4.5-2.6c0.7-2-0.5-4.2-2.5-4.9s-4.2,0.5-4.9,2.5c-0.6,1.9,0.3,3.9,2.1,4.7
		c-1.3,3-3.4,8.4-5.7,16.5c-0.2,0.9-0.4,1.6-0.6,2.2c0-0.7,0.1-1.4,0.1-2.3c0.3-7.9,0-13.5-0.3-16.8c1.2-0.2,2.1-1.3,2.1-2.5
		c0-1.4-1.2-2.6-2.6-2.6c-1.4,0-2.6,1.2-2.6,2.6c0,1.3,0.9,2.3,2.1,2.5c-0.3,3.4-0.6,9-0.3,16.8c0,0.9,0.1,1.7,0.1,2.3
		c-0.2-0.6-0.4-1.4-0.6-2.2c-2.3-8.1-4.4-13.5-5.7-16.5c1.8-0.8,2.7-2.8,2.1-4.7c-0.7-2-2.8-3.1-4.9-2.5c-2,0.7-3.1,2.8-2.5,4.9
		c0.6,1.9,2.6,3,4.5,2.6c0.7,3.2,2.2,8.8,5.1,16.7c0.3,0.8,0.6,1.6,0.8,2.2c-0.4-0.6-0.8-1.2-1.3-1.9c-4.4-6.6-7.9-10.9-10.1-13.4
		l0,0c0.8-0.9,0.9-2.3,0.2-3.3c-0.5-0.7-1.4-1.1-2.2-1.1c-0.5,0-1,0.2-1.4,0.5c-1.2,0.8-1.4,2.5-0.6,3.6c0.5,0.7,1.4,1.1,2.2,1.1
		c0.3,0,0.7-0.1,1-0.3c1.7,2.9,4.8,7.6,9.7,13.8c0.6,0.7,1,1.3,1.5,1.8c-0.5-0.4-1.1-0.9-1.8-1.5c-6.6-5.2-11.5-8.3-14.4-10
		c1-1.7,0.6-3.9-1.1-5.1c-1.7-1.3-4.2-0.9-5.4,0.9c-1.3,1.7-0.9,4.2,0.9,5.4c1.6,1.2,3.8,0.9,5.1-0.5c2.5,2.2,6.9,5.9,13.9,10.6
		c0.7,0.5,1.4,0.9,1.9,1.3c-0.6-0.2-1.3-0.5-2.2-0.8c-7.4-2.7-12.8-4.2-16.1-4.9c0.2-1.2-0.6-2.4-1.8-2.8c-0.3-0.1-0.7-0.1-1-0.1
		c-1,0.1-1.9,0.8-2.2,1.8c-0.4,1.4,0.3,2.8,1.7,3.3c0.3,0.1,0.7,0.1,1,0.1c0.9-0.1,1.6-0.6,2-1.3c3.1,1.3,8.3,3.3,15.9,5.5
		c0.9,0.2,1.6,0.4,2.2,0.6c-0.7,0-1.4-0.1-2.3-0.1c-8.4-0.3-14.2,0-17.5,0.4c-0.2-1.9-1.8-3.5-3.8-3.5c-2.1,0-3.9,1.7-3.9,3.9
		c0,2.1,1.7,3.9,3.9,3.9c2,0,3.6-1.5,3.8-3.5c3.3,0.3,9.1,0.7,17.5,0.4c0.9,0,1.7-0.1,2.3-0.1c-0.6,0.2-1.4,0.4-2.2,0.6
		c-7.6,2.2-12.8,4.2-15.9,5.5c-0.1-0.2-0.2-0.3-0.3-0.5c-0.7-0.8-1.7-1.1-2.8-0.8c-1.2,0.4-1.9,1.5-1.8,2.7c0,0.2,0.1,0.3,0.1,0.5
		c0.4,1.4,1.9,2.1,3.3,1.7c1.2-0.4,1.9-1.6,1.8-2.8c3.3-0.7,8.7-2.2,16.1-4.9c0.8-0.3,1.5-0.6,2.2-0.8c-0.6,0.4-1.2,0.8-1.9,1.3
		c-7,4.7-11.5,8.4-13.9,10.6c-1.3-1.5-3.5-1.7-5.1-0.6c-1.7,1.3-2.1,3.7-0.9,5.4c1.3,1.7,3.7,2.1,5.4,0.9c1.6-1.2,2-3.4,1.1-5
		c2.8-1.7,7.7-4.8,14.4-10c0.7-0.6,1.3-1,1.8-1.5c-0.4,0.5-0.9,1.1-1.5,1.8c-4.9,6.2-7.9,10.9-9.7,13.8c-1.1-0.5-2.5-0.2-3.2,0.8
		c-0.8,1.2-0.6,2.8,0.6,3.6s2.8,0.6,3.6-0.6c0.7-1,0.6-2.4-0.2-3.3c2.2-2.5,5.7-6.9,10.1-13.4c0.5-0.7,0.9-1.4,1.3-2
		c-0.2,0.6-0.5,1.3-0.8,2.2c-2.9,7.9-4.4,13.5-5.1,16.7c-1.9-0.4-3.9,0.7-4.5,2.6c-0.7,2,0.5,4.2,2.5,4.9c2,0.7,4.2-0.5,4.9-2.5
		c0.6-1.9-0.3-3.9-2.1-4.7c1.3-3,3.4-8.4,5.7-16.5c0.2-0.9,0.4-1.6,0.6-2.2c0,0.7-0.1,1.4-0.1,2.3c-0.3,7.9,0,13.5,0.3,16.8
		c-0.1,0-0.3,0.1-0.4,0.1c-1,0.4-1.7,1.3-1.7,2.4c0,0.5,0.2,1,0.4,1.4c0.3,0.5,0.8,0.9,1.4,1c0.1,0,0.1,0,0.2,0.1h0.1
		c0.1,0,0.3,0,0.4,0l0,0c0.1,0,0.3,0,0.4,0h0.1c0.1,0,0.1,0,0.2-0.1c0.6-0.2,1.1-0.5,1.4-1c0.3-0.4,0.4-0.9,0.4-1.4
		c0-1.1-0.7-2.1-1.7-2.4c-0.1,0-0.3-0.1-0.4-0.1c0.3-3.4,0.6-9,0.3-16.8c0-0.9-0.1-1.7-0.1-2.3c0.2,0.6,0.4,1.4,0.6,2.2
		c2.3,8.1,4.4,13.5,5.7,16.5c-1.8,0.8-2.7,2.8-2.1,4.7c0.7,2,2.8,3.1,4.9,2.5c2-0.7,3.2-2.9,2.5-4.9c-0.6-1.9-2.6-3-4.5-2.6
		c-0.7-3.2-2.2-8.8-5.1-16.7c-0.3-0.8-0.6-1.6-0.8-2.2c0.4,0.6,0.8,1.2,1.3,2c4.7,6.5,8.3,10.9,10.5,13.4c-0.8,0.9-1,2.3-0.2,3.3
		c0.8,1.2,2.5,1.4,3.6,0.6c1.2-0.8,1.4-2.5,0.6-3.6c-0.7-1-2.1-1.3-3.2-0.8c-1.7-2.9-4.8-7.6-9.7-13.8c-0.6-0.7-1-1.3-1.5-1.8
		c0.5,0.4,1.1,0.9,1.8,1.5c6.6,5.2,11.5,8.3,14.4,10c-1,1.7-0.6,3.9,1.1,5c1.7,1.3,4.2,0.9,5.4-0.9c1.3-1.7,0.9-4.2-0.9-5.4
		c-1.6-1.2-3.8-0.9-5.1,0.6c-2.5-2.2-6.9-5.9-13.9-10.6c-0.7-0.5-1.4-0.9-1.9-1.3c0.6,0.2,1.3,0.5,2.2,0.8
		c7.4,2.7,12.8,4.2,16.1,4.9C61,47.4,61.8,48.6,63,49c0.2,0.1,0.3,0.1,0.5,0.1c1.2,0.1,2.4-0.6,2.7-1.8c0.4-1.4-0.3-2.8-1.7-3.2
		h-0.1c-1.2-0.3-2.4,0.2-3,1.2c-3.1-1.3-8.3-3.3-15.9-5.5c-0.9-0.2-1.6-0.4-2.2-0.6c0.7,0,1.4,0.1,2.3,0.1c8.4,0.3,14.2,0,17.5-0.4
		c0.2,1.9,1.8,3.5,3.8,3.5c2.1,0,3.9-1.7,3.9-3.9C70.7,36.4,69,34.7,66.9,34.7z"/>
	<g>
		<g>
			<g>
				<g>
					<path class="st4" d="M60.2,48.6c-0.6-8.8-8-13-13.8-15.3l-6.2-2.5c-4.7-1.8-8.6-4.9-8.8-8.6c-0.3-4,2.8-7.6,8.8-8
						c6.5-0.4,10.8,5.2,12.6,9.2c0.9,0.8,3.1,0.5,3.5-0.4c0,0,0.9-1.6,0.9-3c0-2.1-1.8-3.5-1.8-3.5c-4.8-3.6-10.9-5.6-17.4-5.3
						c-2.7,0.1-5.3,0.6-7.7,1.4c-6.8,2.8-10.5,8-10,14.4c0.5,7.9,8,12.3,14.7,14.8c5.6,2.1,12.7,5.5,13.2,12c0.3,4-2.6,8.3-9.3,8.7
						C31.2,63,24.6,56,22.5,50.9c-0.8-0.8-2.9-0.6-3.4,0.4c0,0-0.8,1-0.8,3.1c0.2,1.8,1.7,3.3,1.7,3.3c5.2,5.1,12.4,8.2,20.3,7.8
						c5.6-0.2,10.7-2.1,14.9-5.2C58.7,57.3,60.5,53.3,60.2,48.6z"/>
				</g>
				<g>
					<path class="st0" d="M39.2,66.8c-7.4,0-14.7-3-20-8.2c-0.2-0.2-1.9-1.8-2.1-4.1v-0.1c0-2.2,0.7-3.4,1-3.8
						c0.5-0.8,1.4-1.3,2.4-1.5c1.2-0.2,2.2,0.2,2.9,0.9l0.1,0.2l0.1,0.2c2,4.6,8.2,11.3,15.2,10.9c2.9-0.2,5.1-1.1,6.6-2.7
						c1.1-1.3,1.7-2.9,1.6-4.6c-0.4-5.8-7.2-9-12.4-10.9c-9.8-3.7-15-9-15.5-15.8c-0.5-6.9,3.4-12.6,10.8-15.6
						c2.7-0.9,5.4-1.4,8.1-1.5c6.5-0.3,12.9,1.7,18.1,5.6c0.1,0.1,2.3,1.8,2.3,4.5c0,1.5-0.9,3.1-1.1,3.5c-0.3,0.7-1,1.2-2,1.4
						c-1.1,0.3-2.5,0.2-3.4-0.6l-0.2-0.2l-0.1-0.2c-0.7-1.5-4.4-8.9-11.4-8.5c-2.7,0.2-4.9,1.1-6.2,2.6c-1,1.1-1.5,2.6-1.4,4.1
						c0.2,2.8,3.3,5.7,8.1,7.6l6.2,2.5c9.3,3.4,14,8.7,14.5,16l0,0c0.3,5-1.5,9.4-5.4,12.7l-0.1,0.1c-4.5,3.3-9.9,5.2-15.6,5.5
						C40,66.8,39.6,66.8,39.2,66.8z M19.5,54.3c0.2,1.3,1.3,2.5,1.4,2.5c5.1,5.1,12.2,7.8,19.4,7.5c5.2-0.2,10.1-1.9,14.2-5
						c3.2-2.8,4.8-6.5,4.5-10.7l0,0c-0.4-6.3-4.7-10.9-13.1-14.3l-6.2-2.4c-5.8-2.2-9.3-5.8-9.6-9.7c-0.1-2.2,0.6-4.3,2-5.9
						c1.8-2,4.5-3.2,7.9-3.4c6.5-0.4,11.3,4.6,13.6,9.6c0.4,0.1,1.2,0.1,1.5-0.1v-0.1c0.2-0.4,0.8-1.6,0.8-2.4
						c0-1.5-1.3-2.5-1.3-2.5C49.8,13.9,44,12,38,12.3c-2.5,0.1-5,0.6-7.3,1.4c-6.3,2.6-9.6,7.4-9.2,13.2s5.1,10.5,13.9,13.7
						c5.8,2.1,13.5,5.8,13.9,13c0.2,2.4-0.6,4.6-2.2,6.4c-1.3,1.5-3.8,3.3-8.2,3.5c-8.2,0.5-15-6.7-17.5-12.1
						c-0.1-0.1-0.4-0.1-0.7-0.1c-0.4,0.1-0.6,0.2-0.7,0.3l-0.1,0.2C20,52,19.5,52.8,19.5,54.3z M55.2,22.4L55.2,22.4L55.2,22.4z"/>
				</g>
			</g>
		</g>
	</g>
	<g>
		<path class="st2" d="M60.2,48.6c-0.6-8.8-8-13-13.8-15.3l-6.2-2.5c-4.7-1.8-8.6-4.9-8.8-8.6c-0.3-4,2.8-7.6,8.8-8
			c6.5-0.4,10.8,5.2,12.6,9.2c0.9,0.8,3.1,0.5,3.5-0.4c0,0,0.9-1.6,0.9-3c0-2.1-1.8-3.5-1.8-3.5c-4.8-3.6-10.9-5.6-17.4-5.3
			c-2.7,0.1-5.3,0.6-7.7,1.4c-6.8,2.8-10.5,8-10,14.4c0.5,7.9,8,12.3,14.7,14.8c5.6,2.1,12.7,5.5,13.2,12c0.3,4-2.6,8.3-9.3,8.7
			C31.2,63,24.6,56,22.5,50.9c-0.8-0.8-2.9-0.6-3.4,0.4c0,0-0.8,1-0.8,3.1c0.2,1.8,1.7,3.3,1.7,3.3c5.2,5.1,12.4,8.2,20.3,7.8
			c5.6-0.2,10.7-2.1,14.9-5.2C58.7,57.3,60.5,53.3,60.2,48.6z"/>
	</g>
</g>
</svg>
